<svg xmlns="http://www.w3.org/2000/svg" viewBox="0 0 500 500"><g id="freepik--City--inject-66"><polygon id="freepik--city--inject-66" points="475.9 357.97 475.9 149.31 441.73 129.58 416.09 144.38 416.09 195.58 403.28 188.18 403.28 168.44 390.46 161.04 390.46 85.94 352 63.73 334.91 73.6 334.91 96.65 317.82 86.79 300.73 96.65 300.73 139.42 283.64 149.26 283.64 108.25 266.55 98.39 245.19 110.72 245.19 160.06 223.82 147.72 223.82 68.78 198.19 53.98 168.28 71.25 168.28 135.29 155.46 142.69 155.46 168.63 138.37 178.5 138.37 89.79 117 77.45 91.37 92.26 91.37 113.32 78.55 120.72 78.55 177.64 61.46 187.51 61.46 149 35.82 134.19 23 141.59 23 357.97 475.9 357.97" style="fill:#f5f5f5"></polygon></g><g id="freepik--Floor--inject-66"><path id="freepik--floor--inject-66" d="M82.92,247.46c-92.27,53.28-92.27,139.65,0,192.92s241.88,53.28,334.15,0,92.27-139.64,0-192.92S175.19,194.19,82.92,247.46Z" style="fill:#fafafa"></path></g><g id="freepik--Pipes--inject-66"><g id="freepik--pipes--inject-66"><g id="freepik--Pipe--inject-66"><polygon points="147.76 257.33 147.76 230.24 122.02 215.37 122.02 242.47 147.76 257.33" style="fill:#e0e0e0"></polygon><polygon points="147.76 257.33 147.76 230.24 173.5 215.37 173.5 242.47 147.76 257.33" style="fill:#f0f0f0"></polygon><polygon points="122.02 215.37 147.76 200.51 173.5 215.37 147.76 230.24 122.02 215.37" style="fill:#fafafa"></polygon><polygon points="147.76 228 147.76 222.65 126.31 210.27 126.31 215.61 147.76 228" style="fill:#e0e0e0"></polygon><polygon points="147.76 228 147.76 222.65 169.22 210.27 169.22 215.61 147.76 228" style="fill:#f0f0f0"></polygon><polygon points="126.31 210.27 147.76 197.88 169.22 210.27 147.76 222.65 126.31 210.27" style="fill:#fafafa"></polygon><g id="freepik--pipe--inject-66"><path d="M134.62,210.19l2-112.22c0-1.61,1.09-3.23,3.26-4.46a17.77,17.77,0,0,1,15.77,0c2.17,1.23,3.26,2.84,3.26,4.46h0l2,112.22h0c0,1.93-1.24,3.86-3.84,5.33-5.13,2.9-13.46,2.9-18.59,0-2.6-1.47-3.88-3.4-3.85-5.33Z" style="fill:#ebebeb"></path><g style="opacity:0.30000000000000004"><path d="M156.69,94.36l2.45,119.38a9.51,9.51,0,0,1-2.28,1.78,12.34,12.34,0,0,1-1.26.63L154.56,93c.32.15.63.3.92.47A8.31,8.31,0,0,1,156.69,94.36Z" style="fill:#fff"></path></g><path d="M158.19,199a12.08,12.08,0,0,0,2.49-1.71l-.1-5.64a8.15,8.15,0,0,1-3.27,2.8c-4.56,2.38-11.57,2.7-16.79,1l.43-59.86a24,24,0,0,0,6.83,1,21.61,21.61,0,0,0,9.9-2.18,11.64,11.64,0,0,0,1.86-1.19l-.1-5.37a8.57,8.57,0,0,1-2.64,2c-4.27,2.24-10.82,2.55-15.75.95l.43-19.4a23.06,23.06,0,0,0,6.3.84,20.77,20.77,0,0,0,9.39-2,11,11,0,0,0,1.93-1.29L158.91,98a4,4,0,0,0-.54-1.93,11.58,11.58,0,0,0-1.2-.73,20.77,20.77,0,0,0-9.39-2.06,23.47,23.47,0,0,0-5.92.75l0-1.38a12.62,12.62,0,0,0-2,.89c-2.17,1.23-3.26,2.85-3.26,4.46l-2,112.22h0c0,1.93,1.25,3.86,3.85,5.33a14.59,14.59,0,0,0,1.59.76l.35-16a25.48,25.48,0,0,0,7.37,1.05A22.93,22.93,0,0,0,158.19,199Z" style="fill:#e0e0e0"></path><path d="M134.61,121.91v3.17a6,6,0,0,0,1.4,3.78,9.41,9.41,0,0,0,2.79,2.31,19.52,19.52,0,0,0,17.93,0,9.54,9.54,0,0,0,2.79-2.31,6,6,0,0,0,1.39-3.78v-3.17a6.08,6.08,0,0,0-1.65-4.14l.06,3.82v.32c0,1.71-1.13,3.42-3.39,4.72-4.51,2.61-11.83,2.61-16.35,0-2.24-1.29-3.37-3-3.39-4.68v-.37l0-3.81A6.08,6.08,0,0,0,134.61,121.91Z" style="fill:#f0f0f0"></path><path d="M134.61,121.91a6.12,6.12,0,0,0,1.48,3.89,9.91,9.91,0,0,0,2.71,2.2,19.6,19.6,0,0,0,17.93,0,9.43,9.43,0,0,0,2.7-2.2,6,6,0,0,0,1.48-3.89,6.08,6.08,0,0,0-1.65-4.14l.06,3.82v.32c0,1.71-1.13,3.42-3.39,4.72-4.51,2.61-11.83,2.61-16.35,0-2.24-1.29-3.37-3-3.39-4.68v-.37l0-3.81A6.08,6.08,0,0,0,134.61,121.91Z" style="fill:#f5f5f5"></path><path d="M133.33,186.15v3.31a6.45,6.45,0,0,0,1.46,4,10.75,10.75,0,0,0,3.11,2.62,21.7,21.7,0,0,0,19.72,0,10.51,10.51,0,0,0,3.11-2.63,6.47,6.47,0,0,0,1.46-4v-3.31a6.7,6.7,0,0,0-1.77-4.42l.06,4.07v.35c0,1.89-1.2,3.77-3.7,5.21-5,2.88-13.07,2.88-18.06,0-2.45-1.41-3.65-3.27-3.69-5.12v-.5l.05-4A6.69,6.69,0,0,0,133.33,186.15Z" style="fill:#f0f0f0"></path><path d="M133.33,186.15a6.5,6.5,0,0,0,1.55,4.14,10.73,10.73,0,0,0,3,2.5,21.53,21.53,0,0,0,19.72,0,10.64,10.64,0,0,0,3-2.5,6.54,6.54,0,0,0,1.54-4.14,6.7,6.7,0,0,0-1.77-4.42l.06,4.07v.35c0,1.89-1.2,3.77-3.7,5.21-5,2.88-13.07,2.88-18.06,0-2.45-1.41-3.65-3.27-3.69-5.12v-.5l.05-4A6.69,6.69,0,0,0,133.33,186.15Z" style="fill:#f5f5f5"></path><path d="M135.27,98c0-2.27,1.41-4.34,4-5.83a18.59,18.59,0,0,1,17,0c2.57,1.49,4,3.56,4,5.83v3.17c0,2.27-1.42,4.34-4,5.83a18.67,18.67,0,0,1-17,0c-2.58-1.49-4-3.56-4-5.83Z" style="fill:#f0f0f0"></path><path d="M147.76,105.85a17.26,17.26,0,0,0,8.51-2.06c2.57-1.48,4-3.55,4-5.82s-1.42-4.34-4-5.83a18.59,18.59,0,0,0-17,0c-2.58,1.49-4,3.56-4,5.83s1.41,4.34,4,5.82A17.22,17.22,0,0,0,147.76,105.85Z" style="fill:#f5f5f5"></path><path d="M155.48,102.42a17.05,17.05,0,0,1-15.43,0c-4.26-2.46-4.26-6.45,0-8.91a17.05,17.05,0,0,1,15.43,0C159.74,96,159.74,100,155.48,102.42Z" style="fill:#e0e0e0"></path><g style="opacity:0.1"><path d="M150.23,91.84a14.4,14.4,0,0,1,5.25,1.67c4.26,2.46,4.26,6.45,0,8.91a14.41,14.41,0,0,1-5.25,1.68Z"></path></g><g style="opacity:0.1"><path d="M144.22,103.92a13.37,13.37,0,0,1-4.07-1.45v-9A13.63,13.63,0,0,1,144.22,92Z" style="fill:#fff"></path></g></g></g><g id="freepik--pipe--inject-66"><polygon points="109.15 279.62 109.15 252.53 83.41 237.67 83.41 264.76 109.15 279.62" style="fill:#e0e0e0"></polygon><polygon points="109.15 279.62 109.15 252.53 134.89 237.67 134.89 264.76 109.15 279.62" style="fill:#f0f0f0"></polygon><polygon points="83.41 237.67 109.15 222.81 134.89 237.67 109.15 252.53 83.41 237.67" style="fill:#fafafa"></polygon><polygon points="109.15 250.29 109.15 244.95 87.7 232.56 87.7 237.91 109.15 250.29" style="fill:#e0e0e0"></polygon><polygon points="109.15 250.29 109.15 244.95 130.6 232.56 130.6 237.91 109.15 250.29" style="fill:#f0f0f0"></polygon><polygon points="87.7 232.56 109.15 220.18 130.6 232.56 109.15 244.95 87.7 232.56" style="fill:#fafafa"></polygon><g id="freepik--pipe--inject-66"><path d="M96,232.49l2-112.23c0-1.61,1.08-3.22,3.26-4.45a17.75,17.75,0,0,1,15.76,0c2.18,1.23,3.27,2.84,3.27,4.45h0l2,112.23h0c0,1.92-1.24,3.86-3.84,5.33-5.14,2.9-13.46,2.9-18.59,0-2.6-1.47-3.88-3.41-3.85-5.33Z" style="fill:#ebebeb"></path><g style="opacity:0.30000000000000004"><path d="M118.08,116.65,120.53,236a9.51,9.51,0,0,1-2.28,1.78c-.4.23-.82.43-1.26.63l-1-123.11a9.32,9.32,0,0,1,2.13,1.31Z" style="fill:#fff"></path></g><path d="M119.58,221.32a11.59,11.59,0,0,0,2.49-1.71L122,214a8.13,8.13,0,0,1-3.27,2.79c-4.56,2.39-11.57,2.71-16.79,1l.42-59.87a24.16,24.16,0,0,0,6.84,1,21.73,21.73,0,0,0,9.89-2.18,11.78,11.78,0,0,0,1.87-1.2l-.1-5.37a8.55,8.55,0,0,1-2.64,2c-4.27,2.24-10.82,2.55-15.75.94l.43-19.39a23.06,23.06,0,0,0,6.3.84,20.64,20.64,0,0,0,9.39-2.06,11,11,0,0,0,1.93-1.28l-.19-10.89a4,4,0,0,0-.54-1.93,13.6,13.6,0,0,0-1.2-.72,20.64,20.64,0,0,0-9.39-2.06,23.47,23.47,0,0,0-5.92.74l0-1.38a12.65,12.65,0,0,0-2,.9C99.09,117,98,118.65,98,120.26L96,232.49h0c0,1.92,1.25,3.86,3.85,5.33a14.56,14.56,0,0,0,1.59.75l.35-16a25.15,25.15,0,0,0,7.37,1.05A22.93,22.93,0,0,0,119.58,221.32Z" style="fill:#e0e0e0"></path><path d="M96,144.21v3.16a6,6,0,0,0,1.4,3.78,9.67,9.67,0,0,0,2.78,2.32,19.62,19.62,0,0,0,17.94,0,9.72,9.72,0,0,0,2.79-2.32,6,6,0,0,0,1.39-3.78v-3.16a6.06,6.06,0,0,0-1.65-4.14l.06,3.82v.32c0,1.71-1.13,3.42-3.39,4.72-4.51,2.61-11.83,2.61-16.35,0-2.24-1.29-3.37-3-3.39-4.68v-.37l.05-3.81A6.06,6.06,0,0,0,96,144.21Z" style="fill:#f0f0f0"></path><path d="M96,144.21a6.07,6.07,0,0,0,1.48,3.88,9.71,9.71,0,0,0,2.7,2.21,19.71,19.71,0,0,0,17.94,0,9.29,9.29,0,0,0,2.7-2.21,5.92,5.92,0,0,0-.17-8l.06,3.82v.32c0,1.71-1.13,3.42-3.39,4.72-4.51,2.61-11.83,2.61-16.35,0-2.24-1.29-3.37-3-3.39-4.68v-.37l.05-3.81A6.06,6.06,0,0,0,96,144.21Z" style="fill:#f5f5f5"></path><path d="M94.72,208.44v3.32a6.49,6.49,0,0,0,1.46,4,10.73,10.73,0,0,0,3.11,2.61,21.61,21.61,0,0,0,19.72,0,10.37,10.37,0,0,0,3.11-2.63,6.44,6.44,0,0,0,1.46-4v-3.32A6.62,6.62,0,0,0,121.8,204l.06,4.06,0,.36c0,1.88-1.2,3.77-3.7,5.2-5,2.89-13.07,2.89-18.06,0-2.45-1.41-3.65-3.26-3.69-5.12V208l0-4A6.65,6.65,0,0,0,94.72,208.44Z" style="fill:#f0f0f0"></path><path d="M94.72,208.44a6.5,6.5,0,0,0,1.55,4.14,10.78,10.78,0,0,0,3,2.51,21.61,21.61,0,0,0,19.72,0,10.78,10.78,0,0,0,3-2.51,6.5,6.5,0,0,0,1.55-4.14A6.62,6.62,0,0,0,121.8,204l.06,4.06,0,.36c0,1.88-1.2,3.77-3.7,5.2-5,2.89-13.07,2.89-18.06,0-2.45-1.41-3.65-3.26-3.69-5.12V208l0-4A6.65,6.65,0,0,0,94.72,208.44Z" style="fill:#f5f5f5"></path><path d="M96.66,120.26c0-2.27,1.41-4.34,4-5.82a18.61,18.61,0,0,1,17,0c2.57,1.48,4,3.55,4,5.82v3.17c0,2.28-1.42,4.35-4,5.83a18.61,18.61,0,0,1-17,0c-2.57-1.48-4-3.55-4-5.83Z" style="fill:#f0f0f0"></path><path d="M109.15,128.15a17.26,17.26,0,0,0,8.51-2.06c2.57-1.48,4-3.55,4-5.83s-1.42-4.34-4-5.82a18.61,18.61,0,0,0-17,0c-2.57,1.48-4,3.55-4,5.82s1.41,4.35,4,5.83A17.26,17.26,0,0,0,109.15,128.15Z" style="fill:#f5f5f5"></path><path d="M116.87,124.72a17.05,17.05,0,0,1-15.43,0c-4.27-2.46-4.26-6.45,0-8.91a17.05,17.05,0,0,1,15.43,0C121.13,118.27,121.13,122.26,116.87,124.72Z" style="fill:#e0e0e0"></path><g style="opacity:0.1"><path d="M111.62,114.13a14.41,14.41,0,0,1,5.25,1.68c4.26,2.46,4.26,6.45,0,8.91a14.4,14.4,0,0,1-5.25,1.67Z"></path></g><g style="opacity:0.1"><path d="M105.6,126.21a13.67,13.67,0,0,1-4.06-1.44v-9a13.41,13.41,0,0,1,4.06-1.45Z" style="fill:#fff"></path></g></g></g><g id="freepik--pipe--inject-66"><polygon points="70.55 301.9 70.55 274.81 44.8 259.95 44.8 287.04 70.55 301.9" style="fill:#e0e0e0"></polygon><polygon points="70.55 301.9 70.55 274.81 96.29 259.95 96.29 287.04 70.55 301.9" style="fill:#f0f0f0"></polygon><polygon points="44.8 259.95 70.55 245.09 96.29 259.95 70.55 274.81 44.8 259.95" style="fill:#fafafa"></polygon><polygon points="70.55 272.58 70.55 267.23 49.09 254.84 49.09 260.19 70.55 272.58" style="fill:#e0e0e0"></polygon><polygon points="70.55 272.58 70.55 267.23 92 254.84 92 260.19 70.55 272.58" style="fill:#f0f0f0"></polygon><polygon points="49.09 254.84 70.55 242.46 92 254.84 70.55 267.23 49.09 254.84" style="fill:#fafafa"></polygon><g id="freepik--pipe--inject-66"><path d="M57.4,254.77l2-112.23c0-1.61,1.09-3.22,3.26-4.45a17.77,17.77,0,0,1,15.77,0c2.17,1.23,3.26,2.84,3.26,4.45h0l2,112.23h0c0,1.93-1.25,3.86-3.85,5.33-5.13,2.9-13.46,2.9-18.59,0-2.6-1.47-3.88-3.4-3.84-5.33Z" style="fill:#ebebeb"></path><g style="opacity:0.30000000000000004"><path d="M79.48,138.93l2.44,119.39a9.64,9.64,0,0,1-2.27,1.78c-.4.23-.83.43-1.27.63l-1-123.11c.32.15.63.3.92.47A9,9,0,0,1,79.48,138.93Z" style="fill:#fff"></path></g><path d="M81,243.6a11.68,11.68,0,0,0,2.49-1.7l-.1-5.64a8.13,8.13,0,0,1-3.27,2.79c-4.56,2.39-11.57,2.71-16.79,1l.43-59.87a24,24,0,0,0,6.83,1,21.61,21.61,0,0,0,9.9-2.18,12.38,12.38,0,0,0,1.86-1.19l-.1-5.38a8.43,8.43,0,0,1-2.64,2c-4.27,2.24-10.82,2.55-15.75,1l.43-19.4a23.12,23.12,0,0,0,6.3.84A20.64,20.64,0,0,0,80,154.71a10.87,10.87,0,0,0,1.94-1.28l-.2-10.89a3.91,3.91,0,0,0-.54-1.92,10.61,10.61,0,0,0-1.2-.73,20.64,20.64,0,0,0-9.39-2.06,22.89,22.89,0,0,0-5.91.75l0-1.39a12.37,12.37,0,0,0-2,.9c-2.17,1.23-3.26,2.84-3.26,4.45l-2,112.23h0c0,1.93,1.24,3.86,3.84,5.33a13.64,13.64,0,0,0,1.59.75l.35-16a25.48,25.48,0,0,0,7.37,1A22.93,22.93,0,0,0,81,243.6Z" style="fill:#e0e0e0"></path><path d="M57.39,166.49v3.17a6,6,0,0,0,1.4,3.78,9.86,9.86,0,0,0,2.79,2.31,19.52,19.52,0,0,0,17.93,0,9.86,9.86,0,0,0,2.79-2.31,6,6,0,0,0,1.39-3.78v-3.17A6.06,6.06,0,0,0,82,162.35l.06,3.82v.32c0,1.71-1.13,3.42-3.39,4.72-4.51,2.61-11.83,2.61-16.35,0-2.24-1.29-3.37-3-3.39-4.68v-.37l0-3.81A6.11,6.11,0,0,0,57.39,166.49Z" style="fill:#f0f0f0"></path><path d="M57.39,166.49a6.07,6.07,0,0,0,1.48,3.88,9.76,9.76,0,0,0,2.71,2.21,19.6,19.6,0,0,0,17.93,0,9.29,9.29,0,0,0,2.7-2.21,6,6,0,0,0,1.48-3.88A6.06,6.06,0,0,0,82,162.35l.06,3.82v.32c0,1.71-1.13,3.42-3.39,4.72-4.51,2.61-11.83,2.61-16.35,0-2.24-1.29-3.37-3-3.39-4.68v-.37l0-3.81A6.11,6.11,0,0,0,57.39,166.49Z" style="fill:#f5f5f5"></path><path d="M56.11,230.73V234a6.49,6.49,0,0,0,1.46,4,10.64,10.64,0,0,0,3.12,2.61,20,20,0,0,0,9.85,2.38,20,20,0,0,0,9.86-2.38,10.54,10.54,0,0,0,3.12-2.62A6.48,6.48,0,0,0,85,234v-3.31a6.63,6.63,0,0,0-1.77-4.42l.06,4.06v.36c0,1.89-1.2,3.77-3.7,5.21-5,2.88-13.07,2.88-18.06,0-2.45-1.42-3.65-3.27-3.69-5.13v-.49l0-4A6.67,6.67,0,0,0,56.11,230.73Z" style="fill:#f0f0f0"></path><path d="M56.11,230.73a6.47,6.47,0,0,0,1.55,4.13,10.83,10.83,0,0,0,3,2.51,20,20,0,0,0,9.85,2.39,20,20,0,0,0,9.86-2.39,10.83,10.83,0,0,0,3-2.51A6.52,6.52,0,0,0,85,230.73a6.63,6.63,0,0,0-1.77-4.42l.06,4.06v.36c0,1.89-1.2,3.77-3.7,5.21-5,2.88-13.07,2.88-18.06,0-2.45-1.42-3.65-3.27-3.69-5.13v-.49l0-4A6.67,6.67,0,0,0,56.11,230.73Z" style="fill:#f5f5f5"></path><path d="M58.05,142.54c0-2.27,1.42-4.34,4-5.82a18.59,18.59,0,0,1,17,0c2.58,1.48,4,3.55,4,5.82v3.18c0,2.27-1.41,4.34-4,5.82a18.59,18.59,0,0,1-17,0c-2.57-1.48-4-3.55-4-5.82Z" style="fill:#f0f0f0"></path><path d="M70.54,150.43a17.23,17.23,0,0,0,8.51-2.06c2.58-1.48,4-3.55,4-5.83s-1.41-4.34-4-5.82a18.59,18.59,0,0,0-17,0c-2.57,1.48-4,3.55-4,5.82s1.42,4.35,4,5.83A17.22,17.22,0,0,0,70.54,150.43Z" style="fill:#f5f5f5"></path><path d="M78.26,147a17.05,17.05,0,0,1-15.43,0c-4.26-2.46-4.26-6.45,0-8.91a17.05,17.05,0,0,1,15.43,0C82.52,140.55,82.52,144.54,78.26,147Z" style="fill:#e0e0e0"></path><g style="opacity:0.1"><path d="M73,136.41a14.41,14.41,0,0,1,5.25,1.68c4.26,2.46,4.26,6.45,0,8.91A14.6,14.6,0,0,1,73,148.68Z"></path></g><g style="opacity:0.1"><path d="M67,148.5a14,14,0,0,1-4.07-1.45v-9A14,14,0,0,1,67,136.59Z" style="fill:#fff"></path></g></g></g></g><g id="freepik--Smoke--inject-66"><path d="M155.48,102.43c-4.12,2.38-10.71,2.46-15,.22,0-5.76-4.72-11.89-11-11.16-4.75.55-8.8,4.71-13.55,4.21-3.1-.32-5.61-2.56-8.43-3.89a15.05,15.05,0,0,0-9.67-1c-4.18,1-7.74,3.64-11.71,5.25a24.36,24.36,0,0,1-16.91.45c-3.44-1.18-6.6-3.12-10.09-4.16C53.3,90.55,47,91.46,40.89,91.4c-5.41-.05-13.65-1.21-16.59-6.57-1.27-2.31-.12-5.34,1.61-7.14,2.39-2.47,6.3-2.17,9.31-3.39,5.29-2.13,8.06-8.19,13.17-10.72C57,59.32,68,66.79,76.76,62.91c2.54-1.13,4.6-3.1,7-4.55a19.38,19.38,0,0,1,12.53-2.65c8.26,1.1,15.74,7.52,24,6.14,2.13-.36,4.13-1.24,6.21-1.81,11.1-3,23.1,3.49,26.39,14.42,1.86,6.19,2.67,12.62,2.67,21.43C155.47,96.6,155.49,100.35,155.48,102.43Z" style="fill:#e0e0e0"></path></g></g><g id="freepik--wind-turbines--inject-66"><g id="freepik--wind-turbine--inject-66"><path d="M374,250.3c0-1.86,1.16-3.56,3.27-4.78a15.34,15.34,0,0,1,14,0c2.11,1.22,3.27,2.92,3.27,4.78v5.06c0,1.87-1.16,3.57-3.27,4.78a15.26,15.26,0,0,1-14,0c-2.11-1.21-3.27-2.91-3.27-4.78Z" style="fill:#f0f0f0"></path><path d="M384.2,256.77a14.19,14.19,0,0,0,7-1.69c2.11-1.21,3.27-2.91,3.27-4.78s-1.16-3.56-3.27-4.78a15.34,15.34,0,0,0-14,0c-2.11,1.22-3.27,2.92-3.27,4.78s1.16,3.57,3.27,4.78A14.14,14.14,0,0,0,384.2,256.77Z" style="fill:#fafafa"></path><path d="M378.45,251.05l3.11-120.37h0c0-.18.28-.36.77-.5a8.1,8.1,0,0,1,3.73,0c.49.14.74.32.77.5h0L390,251.05C390,254.46,378.45,254.46,378.45,251.05Z" style="fill:#ebebeb"></path><path d="M384.21,130l1.63,123.55c2.24-.26,4.11-1.08,4.11-2.46l-3.11-120.37h0c0-.18-.28-.36-.77-.5a2.47,2.47,0,0,0-.41-.09A7.27,7.27,0,0,0,384.21,130Z" style="fill:#e0e0e0"></path><path d="M382.33,130.18a8.1,8.1,0,0,1,3.73,0c.49.14.74.32.77.5h0l.08,3.86a21.18,21.18,0,0,1-5.53,3.35l.17-7.21h0C381.59,130.5,381.84,130.32,382.33,130.18Z" style="opacity:0.05"></path><path d="M390.85,124c2,4.47-13,12.76-13,12.76L372.66,125s16.22-5.47,18.19-1" style="fill:#ebebeb"></path><path d="M390.07,123.07c-.19,1-1.66,2.33-3.27,3.39-2.09,1.37-10.08,4.93-10.08,4.93L374.86,130l-2.2-5S386.29,120.39,390.07,123.07Z" style="fill:#fafafa"></path><path d="M374.69,136.08a10,10,0,0,1-3.67-8.32c.31-2.88,2.46-3.83,4.8-2.12a10.06,10.06,0,0,1,3.67,8.32C379.18,136.84,377,137.79,374.69,136.08Z" style="fill:#ebebeb"></path><path d="M374,127.37l-1.43.64.49,1.11a5.83,5.83,0,0,0,2,4.54l.49,1.12,1.44-.64h0a1.84,1.84,0,0,0,.95-1.6,5.81,5.81,0,0,0-2.11-4.79A1.87,1.87,0,0,0,374,127.37Z" style="fill:#f5f5f5"></path><path d="M371.61,129.61a5.78,5.78,0,0,0,2.11,4.78c1.35,1,2.59.44,2.77-1.21a5.78,5.78,0,0,0-2.12-4.79C373,127.4,371.79,128,371.61,129.61Z" style="fill:#ebebeb"></path><path d="M372.84,130.5a2.87,2.87,0,0,0,1.05,2.38c.67.49,1.28.22,1.37-.6a2.87,2.87,0,0,0-1.05-2.38C373.54,129.41,372.93,129.68,372.84,130.5Z" style="fill:#e0e0e0"></path><path d="M372.84,130.5a2.87,2.87,0,0,0,1.05,2.38c.67.49,1.28.22,1.37-.6a2.87,2.87,0,0,0-1.05-2.38C373.54,129.41,372.93,129.68,372.84,130.5Z" style="opacity:0.05"></path><path d="M373,125.63l-7.7-42.35c-.18-1,.61-1.19,1.12-.28,1.88,3.32,5.05,10.08,8,21.69,4.14,16.45,3.36,22.9.27,23C373.93,127.67,373.15,126.69,373,125.63Z" style="fill:#e6e6e6"></path><path d="M377.92,135.05l28.47,26.48c.66.62.69,1.89,0,1.8-2.39-.34-7.18-1.9-15.09-8.06-11.19-8.72-15.29-15.44-14.95-19.73C376.47,134.61,377.21,134.39,377.92,135.05Z" style="fill:#e6e6e6"></path><path d="M371.18,133.61l-20.76,15.87c-.49.37-1.31-.7-1.17-1.51a27.36,27.36,0,0,1,7.12-13.64c7.06-7.72,11.94-7.46,14.68-3.24C371.65,132,371.7,133.22,371.18,133.61Z" style="fill:#e6e6e6"></path></g><g id="freepik--wind-turbine--inject-66"><path d="M432.28,277.21c0-2.28,1.41-4.35,4-5.83a18.61,18.61,0,0,1,17,0c2.57,1.48,4,3.55,4,5.83v6.16c0,2.27-1.42,4.34-4,5.83a18.61,18.61,0,0,1-17,0c-2.57-1.49-4-3.56-4-5.83Z" style="fill:#f0f0f0"></path><path d="M444.77,285.09a17.26,17.26,0,0,0,8.51-2.06c2.57-1.48,4-3.55,4-5.82s-1.42-4.35-4-5.83a18.61,18.61,0,0,0-17,0c-2.57,1.48-4,3.55-4,5.83s1.41,4.34,4,5.82A17.26,17.26,0,0,0,444.77,285.09Z" style="fill:#fafafa"></path><path d="M437.76,278.11l3.79-167.9h0c0-.22.33-.44.93-.61a9.72,9.72,0,0,1,4.55,0c.6.17.91.39.94.61h0l3.79,167.9C451.78,282.27,437.76,282.27,437.76,278.11Z" style="fill:#ebebeb"></path><path d="M444.79,109.33l2,171.78c2.73-.32,5-1.32,5-3L448,110.21h0c0-.22-.34-.44-.94-.61a3.33,3.33,0,0,0-.5-.12A9.67,9.67,0,0,0,444.79,109.33Z" style="fill:#e0e0e0"></path><path d="M442.49,109.6a9.72,9.72,0,0,1,4.55,0c.6.17.91.39.94.61h0l.1,4.7a26,26,0,0,1-6.74,4.09l.2-8.79h0C441.59,110,441.89,109.77,442.49,109.6Z" style="opacity:0.05"></path><path d="M452.88,102c2.4,5.45-15.85,15.55-15.85,15.55l-6.32-14.34s19.77-6.65,22.17-1.21" style="fill:#ebebeb"></path><path d="M451.93,100.93c-.23,1.26-2,2.85-4,4.13-2.55,1.68-12.28,6-12.28,6l-2.28-1.75-2.67-6.07S447.33,97.66,451.93,100.93Z" style="fill:#f5f5f5"></path><path d="M433.18,116.78a12.24,12.24,0,0,1-4.47-10.14c.38-3.51,3-4.66,5.85-2.58A12.23,12.23,0,0,1,439,114.2C438.65,117.72,436,118.87,433.18,116.78Z" style="fill:#ebebeb"></path><path d="M432.33,106.17l-1.75.78.6,1.35a7.11,7.11,0,0,0,2.44,5.54l.6,1.36,1.76-.78h0a2.24,2.24,0,0,0,1.15-2,7,7,0,0,0-2.58-5.83A2.22,2.22,0,0,0,432.33,106.17Z" style="fill:#f5f5f5"></path><path d="M429.43,108.9a7,7,0,0,0,2.57,5.83c1.64,1.2,3.15.54,3.37-1.48a7.06,7.06,0,0,0-2.57-5.84C431.16,106.21,429.65,106.88,429.43,108.9Z" style="fill:#ebebeb"></path><path d="M430.93,110a3.51,3.51,0,0,0,1.27,2.9c.82.6,1.57.26,1.68-.74a3.53,3.53,0,0,0-1.28-2.9C431.78,108.66,431,109,430.93,110Z" style="fill:#e0e0e0"></path><path d="M430.93,110a3.51,3.51,0,0,0,1.27,2.9c.82.6,1.57.26,1.68-.74a3.53,3.53,0,0,0-1.28-2.9C431.78,108.66,431,109,430.93,110Z" style="opacity:0.05"></path><path d="M431.07,104.05l-9.4-51.61c-.22-1.21.75-1.45,1.38-.35,2.28,4,6.14,12.28,9.7,26.44,5.05,20,4.1,27.92.33,28C432.26,106.54,431.3,105.34,431.07,104.05Z" style="fill:#e6e6e6"></path><path d="M437.12,115.53l34.69,32.28c.82.75.86,2.3.06,2.19-2.92-.41-8.75-2.32-18.39-9.83-13.65-10.62-18.64-18.81-18.22-24C435.35,115,436.25,114.72,437.12,115.53Z" style="fill:#e6e6e6"></path><path d="M428.9,113.78l-25.3,19.34c-.59.45-1.6-.85-1.42-1.85.63-3.63,2.59-10,8.67-16.61,8.61-9.42,14.55-9.1,17.9-4C429.48,111.83,429.54,113.3,428.9,113.78Z" style="fill:#e6e6e6"></path></g></g><g id="freepik--Clouds--inject-66"><path id="freepik--Cloud--inject-66" d="M287.72,50.47a7.48,7.48,0,0,0-2.48-.46c-.81-.06-1.06-.22-1.22-.39a5.93,5.93,0,0,0-7.12-2.11,4.57,4.57,0,0,0-5.38-3c.09-2.5-3.11-5.19-6-5.8s-5.16-.34-6.73,1.47c-1.68-3.29-8.28-4.22-11.85-2.48-2.06,1-3.8,2-4.65,3.91a7.86,7.86,0,0,0-.77,3.74,6.61,6.61,0,0,0-6-.84c-2,.78-2.15,2.29-2.25,3.82a7,7,0,0,0-3.65-.06c-1.26.37-2,1.36-1.82,2.17-1-.06-3.38.75-3.1,1.8s3,1.07,4,1a19,19,0,0,0,2.84-.45,4.15,4.15,0,0,0,1.48.28c1.73,0,2.46-.75,2.74-1.4.84,1.78,3.85,3.14,6,3.68,4,1,9.66.4,12.13-2.59a4.3,4.3,0,0,0,1.19,1.45,6.89,6.89,0,0,0,3.7,1.5c1.64.16,6.05.37,7.29-2.25.88,1.74,4.81,2.53,7.79,2.11a12.52,12.52,0,0,0,3.35-1,20.73,20.73,0,0,0,1.92-1.15,1.58,1.58,0,0,1,1.64-.11,9.76,9.76,0,0,0,6.51,0C288.94,52.58,289.29,51.18,287.72,50.47Z" style="fill:#f0f0f0"></path><path id="freepik--cloud--inject-66" d="M323,68.43a5,5,0,0,0-1.58-.29c-.51,0-.67-.14-.77-.25a3.76,3.76,0,0,0-4.51-1.33,2.9,2.9,0,0,0-3.41-1.93c.06-1.58-2-3.29-3.79-3.68s-3.26-.21-4.26.94c-1.07-2.09-5.25-2.67-7.51-1.57a5.49,5.49,0,0,0-2.94,2.48,4.93,4.93,0,0,0-.49,2.36,4.2,4.2,0,0,0-3.82-.53c-1.27.49-1.37,1.45-1.43,2.42a4.45,4.45,0,0,0-2.31,0c-.8.24-1.26.87-1.15,1.37-.64,0-2.14.48-2,1.15s1.91.67,2.56.65a12.15,12.15,0,0,0,1.8-.28,2.71,2.71,0,0,0,.93.17c1.1,0,1.56-.47,1.74-.88.53,1.12,2.44,2,3.78,2.33,2.54.65,6.12.25,7.68-1.64a3,3,0,0,0,.76.92,4.42,4.42,0,0,0,2.34,1c1,.09,3.84.23,4.62-1.43.56,1.1,3.05,1.6,4.94,1.33a7.89,7.89,0,0,0,2.12-.63c.49-.24.77-.47,1.21-.73a1,1,0,0,1,1-.08,6.1,6.1,0,0,0,4.13,0C323.76,69.77,324,68.88,323,68.43Z" style="fill:#f5f5f5"></path><path id="freepik--cloud--inject-66" d="M485.63,76.36a4.46,4.46,0,0,0-1.58-.29c-.51,0-.67-.15-.77-.26a3.76,3.76,0,0,0-4.51-1.33,2.88,2.88,0,0,0-3.4-1.92c.05-1.59-2-3.29-3.79-3.68s-3.27-.22-4.27.93c-1.06-2.08-5.24-2.67-7.51-1.57a5.58,5.58,0,0,0-2.94,2.48,5.06,5.06,0,0,0-.49,2.37,4.14,4.14,0,0,0-3.82-.53c-1.27.49-1.37,1.44-1.43,2.42a4.34,4.34,0,0,0-2.31,0c-.8.23-1.26.86-1.15,1.37-.63,0-2.14.47-2,1.14s1.92.68,2.56.65a12.15,12.15,0,0,0,1.8-.28A2.76,2.76,0,0,0,451,78c1.09,0,1.56-.48,1.73-.89.54,1.13,2.44,2,3.79,2.33,2.53.65,6.12.25,7.68-1.64a2.72,2.72,0,0,0,.75.92,4.38,4.38,0,0,0,2.35,1c1,.1,3.83.23,4.62-1.42.55,1.1,3,1.6,4.93,1.33a7.9,7.9,0,0,0,2.12-.64,14,14,0,0,0,1.22-.73,1,1,0,0,1,1-.07,6.16,6.16,0,0,0,4.13,0C486.4,77.69,486.62,76.81,485.63,76.36Z" style="fill:#f5f5f5"></path></g><g id="freepik--Shadows--inject-66"><path id="freepik--Shadow--inject-66" d="M374.52,283l91,52.31c12.84,7.38,11.31,20.25-3.41,28.75L316.47,447.92C242.83,490.55,119.92,402,178.79,369l152.48-88.18C346,272.34,361.68,275.62,374.52,283Z" style="fill:#e0e0e0"></path><polygon id="freepik--shadow--inject-66" points="212.77 291.77 34 394.93 61.37 410.73 240.14 307.57 212.77 291.77" style="fill:#e0e0e0"></polygon></g><g id="freepik--electric-station--inject-66"><g id="freepik--electric-station--inject-66"><polygon points="188.03 196.74 231.82 171.46 231.82 307.6 188.03 332.89 188.03 196.74" style="fill:#FFC100"></polygon><polygon points="188.03 196.74 231.82 171.46 231.82 307.6 188.03 332.89 188.03 196.74" style="fill:#fff;opacity:0.6000000000000001"></polygon><polygon points="191.95 198.99 227.9 178.23 227.91 305.34 191.95 326.1 191.95 198.99" style="fill:#455a64"></polygon><polygon points="188.01 196.72 188.03 332.89 168.38 321.54 168.38 185.4 188.01 196.72" style="fill:#FFC100"></polygon><polygon points="188.01 196.72 188.03 332.89 168.38 321.54 168.38 185.4 188.01 196.72" style="fill:#fff;opacity:0.4"></polygon><polygon points="231.82 171.46 212.19 160.1 168.38 185.4 188.03 196.74 231.82 171.46" style="fill:#FFC100"></polygon><polygon points="231.82 171.46 212.19 160.1 168.38 185.4 188.03 196.74 231.82 171.46" style="fill:#fff;opacity:0.8"></polygon><polygon points="223.86 185.23 223.86 231.41 195.98 247.5 195.98 201.33 221.87 186.38 223.86 185.23" style="fill:#263238"></polygon><polygon points="221.88 216.25 221.88 230.27 195.98 245.21 195.98 201.33 213.31 191.32 221.87 186.38 221.87 207.95 221.88 216.25" style="fill:#FFC100"></polygon><polygon points="221.88 216.25 221.88 230.27 195.98 245.21 195.98 201.33 213.31 191.32 221.87 186.38 221.87 207.95 221.88 216.25" style="fill:#fff;opacity:0.2"></polygon><path d="M221.87,186.38l-8.56,4.94L196,208.65v6.43l25.89-25.89ZM196,239.46v5.29l25.9-25.89v-5.29Zm25.89-42.55L196,222.79V233.7l25.89-25.89Z" style="fill:#fff;opacity:0.2"></path><polygon points="211.92 195.49 202.86 212.31 211.14 208.83 207.08 222.18 217.57 203.27 208.69 206.55 211.92 195.49" style="fill:#fff"></polygon><path d="M203,228.49v1.56l12.86-7.43v-1.56Zm0,4.69,12.86-7.43v-1.56L203,231.62Zm0,3.13,12.86-7.43v-1.57L203,234.74Z" style="fill:#263238"></path><polygon points="206.25 255.72 206.25 270.35 195.99 276.28 195.99 272.2 202.72 268.31 202.72 257.75 206.25 255.72" style="fill:#37474f"></polygon><polygon points="202.72 268.31 195.99 272.2 195.98 261.4 202.72 257.75 202.72 268.31"></polygon><polygon points="206.25 255.72 206.25 270.35 202.72 268.31 202.72 257.75 206.25 255.72" style="fill:#263238"></polygon><path d="M205.79,278.29v33.33c0,.38-.11.58-.2.64s-.29,0-.59-.13a3.6,3.6,0,0,1-1.55-2.73V293.66a2.79,2.79,0,0,0-1.38-2.4l-1.94-1.12h0a.28.28,0,0,0-.25,0,1.2,1.2,0,0,0-.46,1,.49.49,0,0,0,.18.44h0l1.72,1a1.28,1.28,0,0,1,.63,1.09V309.4a5.08,5.08,0,0,0,2.3,4,2.5,2.5,0,0,0,1.23.36,1.75,1.75,0,0,0,.88-.23,2.14,2.14,0,0,0,1-1.95V278.29Z" style="fill:#263238"></path><path d="M203.61,286.35a1.49,1.49,0,0,1,.88-1.19,4.68,4.68,0,0,1,4.16,0,1.41,1.41,0,0,1,.84,1.19c0,.2,0,1,0,1.21a1.48,1.48,0,0,1-.87,1.2,4.62,4.62,0,0,1-4.16,0,1.46,1.46,0,0,1-.85-1.2Z" style="fill:#37474f"></path><path d="M208.65,285.16a1.4,1.4,0,0,1,.84,1.19,1.48,1.48,0,0,1-.87,1.2,4.62,4.62,0,0,1-4.16,0,1.47,1.47,0,0,1-.85-1.2,1.49,1.49,0,0,1,.88-1.19A4.68,4.68,0,0,1,208.65,285.16Z" style="fill:#263238"></path><path d="M204,275.88a1.28,1.28,0,0,1,.76-1,4.11,4.11,0,0,1,3.62,0,1.26,1.26,0,0,1,.73,1v10.28a1.31,1.31,0,0,1-.76,1,4,4,0,0,1-3.61,0,1.24,1.24,0,0,1-.74-1Z" style="fill:#37474f"></path><path d="M208,275.48a.91.91,0,0,1,.56.79,1,1,0,0,1-.58.8,3.05,3.05,0,0,1-2.79,0,1,1,0,0,1-.57-.8,1,1,0,0,1,.59-.79A3.11,3.11,0,0,1,208,275.48Z" style="fill:#37474f"></path><path d="M200.1,260.88a3.56,3.56,0,0,1-.44,1.22c-.44.59-1.29.77-1.71,1.38a3,3,0,0,0-.29.66l-.5,1.44a1.11,1.11,0,0,0,0,.25.73.73,0,0,0,.11.29,5.36,5.36,0,0,0,.61.88.48.48,0,0,0,.41.17.74.74,0,0,0,.31-.27l3.21-4.51c.27-.38.58-.73.85-1.12a2.61,2.61,0,0,0,.56-1.23.46.46,0,0,0,0-.26.54.54,0,0,0-.09-.12q-.31-.33-.63-.63c-.27-.25-.61.08-.86.22a3.08,3.08,0,0,0-1.19,1A2.46,2.46,0,0,0,200.1,260.88Z" style="fill:#455a64"></path><path d="M209.88,283.43V272.91a17.23,17.23,0,0,0-4.52-11.12c-.85-.92-2.1-2.16-2.1-2.16a.82.82,0,0,0-1-.14l-.89.52a1.24,1.24,0,0,0-.58.73l-.37,1.19a1.81,1.81,0,0,1-.84,1l-.45.27a2.32,2.32,0,0,0-1.06,1.32l-.41,1.32a1.58,1.58,0,0,0,.28,1.48l2.11,2.56a13.28,13.28,0,0,1,3,8.38v5.13C203,285.43,209.88,285.43,209.88,283.43Z" style="fill:#e0e0e0"></path><path d="M203.62,268.82a7.71,7.71,0,0,0-1-2.4c-.46-.77-1-1.48-1.49-2.25-.35-.55-.66-1.12-1-1.69a1.72,1.72,0,0,1-.55.49l-.45.27a2.44,2.44,0,0,0-.5.4l.87,1.27,2.18,3.16a2.58,2.58,0,0,1,.29.51,2.64,2.64,0,0,1-.28,1.72c-.1.27-.2.54-.28.81a.63.63,0,0,0,0,.19.74.74,0,0,0,.08.3,3.76,3.76,0,0,0,.67.91c.28.29.45.36.65-.08a12.1,12.1,0,0,0,.71-1.75A4.05,4.05,0,0,0,203.62,268.82Z" style="fill:#fafafa"></path><path d="M206.52,273.4v11.53c1.69,0,3.36-.51,3.36-1.5V272.91a17.23,17.23,0,0,0-4.52-11.12c-.85-.92-2.1-2.16-2.1-2.16a.82.82,0,0,0-1-.14l-.89.52a1.35,1.35,0,0,0-.32.26,25.94,25.94,0,0,1,4,5.53C206,267.75,206.52,269.24,206.52,273.4Z" style="fill:#fafafa"></path><polygon points="195.99 257.69 206.25 251.76 206.25 247.81 195.98 253.74 195.99 257.69" style="fill:#FFC100"></polygon><polygon points="223.88 245.54 223.88 260.17 213.62 266.1 213.62 262.02 220.35 258.13 220.35 247.58 223.88 245.54" style="fill:#37474f"></polygon><polygon points="220.35 258.13 213.62 262.02 213.62 251.22 220.35 247.58 220.35 258.13"></polygon><polygon points="223.88 245.54 223.88 260.17 220.35 258.13 220.35 247.58 223.88 245.54" style="fill:#263238"></polygon><path d="M223.43,268.11v33.33c0,.39-.11.58-.2.64s-.29,0-.59-.13a3.57,3.57,0,0,1-1.55-2.73V283.49a2.79,2.79,0,0,0-1.39-2.41L217.76,280v0a.25.25,0,0,0-.26,0,1.18,1.18,0,0,0-.45,1,.49.49,0,0,0,.18.44h0l1.72,1a1.25,1.25,0,0,1,.63,1.09v15.73a5.09,5.09,0,0,0,2.31,4,2.44,2.44,0,0,0,1.23.36,1.74,1.74,0,0,0,.87-.23,2.14,2.14,0,0,0,1-1.95V268.11Z" style="fill:#263238"></path><path d="M221.25,276.17a1.45,1.45,0,0,1,.88-1.19,4.68,4.68,0,0,1,4.16,0,1.45,1.45,0,0,1,.84,1.19v1.21a1.46,1.46,0,0,1-.87,1.2,4.62,4.62,0,0,1-4.16,0,1.42,1.42,0,0,1-.85-1.2C221.25,277.18,221.24,276.38,221.25,276.17Z" style="fill:#37474f"></path><path d="M226.29,275a1.26,1.26,0,0,1,0,2.39,4.62,4.62,0,0,1-4.16,0,1.42,1.42,0,0,1-.85-1.2,1.45,1.45,0,0,1,.88-1.19A4.68,4.68,0,0,1,226.29,275Z" style="fill:#263238"></path><path d="M221.63,265.7a1.29,1.29,0,0,1,.77-1,4.09,4.09,0,0,1,3.61,0,1.26,1.26,0,0,1,.73,1V276a1.28,1.28,0,0,1-.75,1,4,4,0,0,1-3.62,0,1.27,1.27,0,0,1-.74-1C221.64,275.8,221.63,265.88,221.63,265.7Z" style="fill:#37474f"></path><path d="M225.59,265.3a1,1,0,0,1,.57.79,1,1,0,0,1-.58.81,3.11,3.11,0,0,1-2.79,0,.84.84,0,0,1,0-1.6A3.09,3.09,0,0,1,225.59,265.3Z" style="fill:#37474f"></path><path d="M217.73,250.7a3.36,3.36,0,0,1-.44,1.22c-.43.6-1.28.78-1.7,1.38a2.63,2.63,0,0,0-.3.66l-.49,1.44a.59.59,0,0,0-.05.25.52.52,0,0,0,.11.29,4.81,4.81,0,0,0,.61.88.44.44,0,0,0,.41.17c.1,0,.25-.19.31-.27,1.1-1.53,2.11-3,3.2-4.51.27-.38.59-.73.85-1.11a2.83,2.83,0,0,0,.57-1.23.61.61,0,0,0,0-.27l-.1-.12q-.3-.33-.63-.63c-.26-.25-.6.08-.85.23a3,3,0,0,0-1.2,1A2.85,2.85,0,0,0,217.73,250.7Z" style="fill:#455a64"></path><path d="M227.52,273.25V262.73A17.18,17.18,0,0,0,223,251.62c-.86-.92-2.11-2.17-2.11-2.17a.83.83,0,0,0-1-.14l-.89.52a1.28,1.28,0,0,0-.58.73l-.36,1.19a1.9,1.9,0,0,1-.84,1.05l-.46.26a2.3,2.3,0,0,0-1,1.32l-.42,1.32a1.58,1.58,0,0,0,.29,1.48l2.1,2.56a13.23,13.23,0,0,1,3,8.38v5.13C220.68,275.25,227.52,275.25,227.52,273.25Z" style="fill:#e0e0e0"></path><path d="M221.25,258.64a7.89,7.89,0,0,0-1-2.4c-.47-.77-1-1.48-1.49-2.24-.35-.56-.67-1.13-1-1.69a2,2,0,0,1-.55.49l-.46.26a2.74,2.74,0,0,0-.5.4c.29.42.58.85.88,1.27l2.17,3.16a2.16,2.16,0,0,1,.29.51,2.63,2.63,0,0,1-.27,1.72c-.1.27-.2.54-.28.81a.72.72,0,0,0,0,.19.62.62,0,0,0,.09.3,3.51,3.51,0,0,0,.67.91c.28.3.45.36.65-.08a12.05,12.05,0,0,0,.7-1.75A4,4,0,0,0,221.25,258.64Z" style="fill:#fafafa"></path><path d="M224.15,263.22v11.53c1.69,0,3.37-.51,3.37-1.5V262.73A17.18,17.18,0,0,0,223,251.62c-.86-.92-2.11-2.17-2.11-2.17a.83.83,0,0,0-1-.14l-.89.52a1.35,1.35,0,0,0-.32.27,25.3,25.3,0,0,1,4,5.52C223.67,257.57,224.15,259.06,224.15,263.22Z" style="fill:#fafafa"></path><polygon points="213.62 247.51 223.88 241.59 223.88 237.63 213.62 243.56 213.62 247.51" style="fill:#FFC100"></polygon></g></g><g id="freepik--gas-station--inject-66"><g id="freepik--gas-station--inject-66"><polygon points="107.8 375.27 107.8 268.62 87.27 256.77 87.27 363.42 107.8 375.27" style="fill:#e0e0e0"></polygon><polygon points="107.8 379.22 107.8 375.27 179.64 333.8 179.64 337.75 107.8 379.22" style="fill:#455a64"></polygon><polygon points="107.8 379.22 107.8 375.27 87.27 363.42 87.27 367.37 107.8 379.22" style="fill:#37474f"></polygon><polygon points="108.22 268.86 179.22 227.87 179.22 333.55 108.22 374.54 108.22 268.86" style="fill:#f5f5f5"></polygon><path d="M178.8,228.6V333.31l-70.16,40.51V269.1l70.16-40.5m.84-1.46L107.8,268.62V375.27l71.84-41.47V227.14Z" style="fill:#f5f5f5"></path><polygon points="88.12 256.76 159.11 215.77 178.8 227.14 107.8 268.13 88.12 256.76" style="fill:#fafafa"></polygon><path d="M159.11,216.26,178,227.14l-70.16,40.5L89,256.77l70.15-40.51m0-1L87.27,256.77l20.53,11.85,71.84-41.48-20.53-11.85Z" style="fill:#f5f5f5"></path><polygon points="118.06 329.85 169.38 300.22 169.38 308.12 118.06 337.75 118.06 329.85" style="fill:#FFC100"></polygon><polygon points="128.33 272.57 118.06 278.49 118.06 310.1 128.33 304.17 128.33 272.57" style="fill:#e0e0e0"></polygon><polygon points="121.48 300.22 118.06 302.19 118.06 278.49 121.48 276.52 121.48 300.22" style="opacity:0.2"></polygon><polygon points="128.33 304.17 121.48 300.22 121.48 276.52 128.33 272.57 128.33 304.17" style="opacity:0.1"></polygon><path d="M128.34,310.62v46.82c0,.43-.12.65-.22.71s-.32.05-.65-.15a3.94,3.94,0,0,1-1.72-3V315.34a3.09,3.09,0,0,0-1.54-2.67l-2.16-1.25v0a.28.28,0,0,0-.28,0,1.33,1.33,0,0,0-.51,1.07.54.54,0,0,0,.21.49h0l1.91,1.11a1.38,1.38,0,0,1,.7,1.21V355a5.63,5.63,0,0,0,2.57,4.49,2.66,2.66,0,0,0,1.36.4,1.9,1.9,0,0,0,1-.25,2.38,2.38,0,0,0,1.07-2.17V310.62Z" style="fill:#263238"></path><path d="M124.47,297.39l0,0,.73-.42c.2-.12.38.21.83.44a2,2,0,0,0,2-.14l0,1.83-.73.43a4,4,0,0,1-2.06-.69C124.38,298.25,124.26,297.57,124.47,297.39Z" style="fill:#37474f"></path><path d="M127.31,297.67a2,2,0,0,1-2,.14c-.48-.24-.65-.6-.87-.42s-.12.91.7,1.49a4,4,0,0,0,2.1.63Z" style="fill:#455a64"></path><path d="M126.67,310.61a1.24,1.24,0,0,1,.75-1,4,4,0,0,1,3.57,0,1.2,1.2,0,0,1,.72,1v1a1.27,1.27,0,0,1-.74,1,3.94,3.94,0,0,1-3.57,0,1.24,1.24,0,0,1-.73-1C126.67,311.48,126.66,310.79,126.67,310.61Z" style="fill:#455a64"></path><path d="M121.28,293.45v5.13a3.48,3.48,0,0,0,1.56,2.71l4.16,2.4,1.12-.65v-1.39l-3.32-1.92a2.65,2.65,0,0,1-1.2-2.06v-4.43a5.31,5.31,0,0,1,.87-2.88l.88-1.07-.75-1-.84,1-.28-.37-1.1,1.35A5.76,5.76,0,0,0,121.28,293.45Z" style="fill:#FFC100"></path><path d="M124.47,290.36a5.31,5.31,0,0,0-.87,2.88v4.43a2.65,2.65,0,0,0,1.2,2.06l3.32,1.92V303l-4.16-2.4a3.45,3.45,0,0,1-1.56-2.71v-5.12a5.79,5.79,0,0,1,1.1-3.16l1.1-1.35.75,1Z" style="fill:#FFC100"></path><path d="M124.47,290.36a5.31,5.31,0,0,0-.87,2.88v4.43a2.65,2.65,0,0,0,1.2,2.06l3.32,1.92V303l-4.16-2.4a3.45,3.45,0,0,1-1.56-2.71v-5.12a5.79,5.79,0,0,1,1.1-3.16l1.1-1.35.75,1Z" style="opacity:0.2"></path><path d="M131,309.59a1.2,1.2,0,0,1,.72,1,1.27,1.27,0,0,1-.74,1,3.94,3.94,0,0,1-3.57,0,1.22,1.22,0,0,1-.73-1,1.24,1.24,0,0,1,.75-1A4,4,0,0,1,131,309.59Z" style="fill:#37474f"></path><path d="M127,295a1.07,1.07,0,0,1,.66-.89,3.43,3.43,0,0,1,3.09,0,1.07,1.07,0,0,1,.63.88v15.46a1.09,1.09,0,0,1-.65.89,3.37,3.37,0,0,1-3.09,0,1.07,1.07,0,0,1-.64-.89Z" style="fill:#455a64"></path><path d="M130.75,294.1a1.07,1.07,0,0,1,.63.88,1.1,1.1,0,0,1-.65.9,3.43,3.43,0,0,1-3.09,0A1.08,1.08,0,0,1,127,295a1.07,1.07,0,0,1,.66-.89A3.43,3.43,0,0,1,130.75,294.1Z" style="fill:#37474f"></path><polygon points="122.36 278.59 120.5 280.14 119.54 280.94 118.97 280.19 118.06 279 118.06 278.49 119.47 277.68 120.98 276.81 122.36 278.59" style="fill:#455a64"></polygon><polygon points="120.88 279.5 120.39 280.01 119.54 280.94 118.97 280.19 118.06 279 118.06 278.49 119.47 277.68 120.88 279.5" style="fill:#37474f"></polygon><path d="M134.08,289.34v4a1.18,1.18,0,0,1-.52.91l-3.85,2.21a1.14,1.14,0,0,1-1.05,0l-.33-.19-3.45-2a3.31,3.31,0,0,1-.89-.78l-5.93-7.78v-3l1.21-3.41a1.91,1.91,0,0,1,.72-.87l3.85-2.22a.69.69,0,0,1,.88.18l3.61,4.74,5.39,7.08A2,2,0,0,1,134.08,289.34Z" style="fill:#FFC100"></path><path d="M134.08,289.34v4a1.18,1.18,0,0,1-.52.91l-3.85,2.21a1.14,1.14,0,0,1-1.05,0l-.33-.19-3.45-2a3.31,3.31,0,0,1-.89-.78l-5.93-7.78v-3l1.21-3.41a1.91,1.91,0,0,1,.72-.87l3.85-2.22a.69.69,0,0,1,.88.18l3.61,4.74,5.39,7.08A2,2,0,0,1,134.08,289.34Z" style="fill:#fff;opacity:0.2"></path><path d="M129.19,292.16v4c0,.33-.22.45-.51.28l-.35-.21-3.45-2a3.31,3.31,0,0,1-.89-.78l-5.93-7.78v-3l.91-2.57.3-.84c.11-.31.36-.35.56-.08l.56.74.11.13,7.83,10.29.49.65A2,2,0,0,1,129.19,292.16Z" style="fill:#FFC100"></path><polygon points="118.06 274.54 128.33 268.62 128.32 264.67 118.06 270.59 118.06 274.54" style="fill:#FFC100"></polygon><polygon points="148.85 260.72 138.59 266.64 138.59 298.25 148.85 292.32 148.85 260.72" style="fill:#e0e0e0"></polygon><polygon points="142.01 288.37 138.59 290.35 138.59 266.64 142.01 264.67 142.01 288.37" style="opacity:0.2"></polygon><polygon points="148.85 292.32 142.01 288.37 142.01 264.67 148.85 260.72 148.85 292.32" style="opacity:0.1"></polygon><path d="M148.87,298.77v46.82c0,.43-.12.65-.22.71s-.32.05-.66-.15a4,4,0,0,1-1.71-3V303.49a3.1,3.1,0,0,0-1.55-2.67l-2.15-1.25v0a.28.28,0,0,0-.28,0,1.33,1.33,0,0,0-.51,1.07.54.54,0,0,0,.2.49h0l1.91,1.11a1.4,1.4,0,0,1,.7,1.21v39.63a5.65,5.65,0,0,0,2.56,4.49,2.72,2.72,0,0,0,1.37.4,1.9,1.9,0,0,0,1-.25,2.38,2.38,0,0,0,1.07-2.17V298.77Z" style="fill:#263238"></path><path d="M145,285.54l0,0,.73-.42c.2-.12.37.21.83.44a2,2,0,0,0,2-.14l0,1.83-.73.42a3.84,3.84,0,0,1-2.06-.68C144.91,286.4,144.79,285.72,145,285.54Z" style="fill:#37474f"></path><path d="M147.84,285.82a2,2,0,0,1-2,.14c-.48-.24-.65-.6-.87-.42s-.13.91.7,1.49a3.79,3.79,0,0,0,2.1.62Z" style="fill:#455a64"></path><path d="M147.19,298.76a1.27,1.27,0,0,1,.76-1,4,4,0,0,1,3.57,0,1.24,1.24,0,0,1,.72,1v1a1.26,1.26,0,0,1-.75,1,3.92,3.92,0,0,1-3.56,0,1.25,1.25,0,0,1-.74-1C147.2,299.63,147.19,298.94,147.19,298.76Z" style="fill:#455a64"></path><path d="M141.81,281.6v5.13a3.48,3.48,0,0,0,1.56,2.71l4.16,2.4,1.12-.65V289.8l-3.33-1.92a2.66,2.66,0,0,1-1.19-2.06v-4.43a5.31,5.31,0,0,1,.87-2.88l.87-1.07-.75-1-.83,1-.29-.37-1.09,1.35A5.76,5.76,0,0,0,141.81,281.6Z" style="fill:#FFC100"></path><path d="M145,278.51a5.31,5.31,0,0,0-.87,2.88v4.43a2.66,2.66,0,0,0,1.19,2.06l3.33,1.92v1.39l-4.16-2.4a3.45,3.45,0,0,1-1.56-2.71V281a5.79,5.79,0,0,1,1.1-3.16l1.09-1.35.75,1Z" style="fill:#FFC100"></path><path d="M145,278.51a5.31,5.31,0,0,0-.87,2.88v4.43a2.66,2.66,0,0,0,1.19,2.06l3.33,1.92v1.39l-4.16-2.4a3.45,3.45,0,0,1-1.56-2.71V281a5.79,5.79,0,0,1,1.1-3.16l1.09-1.35.75,1Z" style="opacity:0.2"></path><path d="M151.52,297.74a1.24,1.24,0,0,1,.72,1,1.26,1.26,0,0,1-.75,1,3.92,3.92,0,0,1-3.56,0,1.24,1.24,0,0,1-.74-1,1.27,1.27,0,0,1,.76-1A4,4,0,0,1,151.52,297.74Z" style="fill:#37474f"></path><path d="M147.53,283.14a1.07,1.07,0,0,1,.65-.89,3.45,3.45,0,0,1,3.1,0,1.07,1.07,0,0,1,.63.88v15.46a1.09,1.09,0,0,1-.65.89,3.39,3.39,0,0,1-3.1,0,1.06,1.06,0,0,1-.63-.89Z" style="fill:#455a64"></path><path d="M151.28,282.25a1.07,1.07,0,0,1,.63.88,1.1,1.1,0,0,1-.65.9,3.45,3.45,0,0,1-3.1,0,.94.94,0,0,1,0-1.78A3.45,3.45,0,0,1,151.28,282.25Z" style="fill:#37474f"></path><polygon points="142.88 266.74 141.02 268.29 140.06 269.09 139.5 268.35 138.59 267.15 138.59 266.64 140 265.83 141.51 264.96 142.88 266.74" style="fill:#455a64"></polygon><polygon points="141.4 267.65 140.92 268.16 140.06 269.09 139.5 268.35 138.59 267.15 138.59 266.64 140 265.83 141.4 267.65" style="fill:#37474f"></polygon><path d="M154.61,277.49v4a1.18,1.18,0,0,1-.52.91l-3.85,2.21a1.14,1.14,0,0,1-1.05,0l-.33-.19-3.46-2a3.43,3.43,0,0,1-.88-.78l-5.93-7.78v-3l1.2-3.41a1.85,1.85,0,0,1,.73-.86l3.85-2.23a.7.7,0,0,1,.88.18l3.61,4.74,5.39,7.08A2,2,0,0,1,154.61,277.49Z" style="fill:#FFC100"></path><path d="M154.61,277.49v4a1.18,1.18,0,0,1-.52.91l-3.85,2.21a1.14,1.14,0,0,1-1.05,0l-.33-.19-3.46-2a3.43,3.43,0,0,1-.88-.78l-5.93-7.78v-3l1.2-3.41a1.85,1.85,0,0,1,.73-.86l3.85-2.23a.7.7,0,0,1,.88.18l3.61,4.74,5.39,7.08A2,2,0,0,1,154.61,277.49Z" style="fill:#fff;opacity:0.2"></path><path d="M149.71,280.31v4c0,.33-.21.45-.5.28l-.35-.21-3.46-2a3.43,3.43,0,0,1-.88-.78l-5.93-7.78v-3l.91-2.57.29-.84c.11-.31.37-.35.57-.08l.56.74.1.13,7.84,10.29.49.65A2.11,2.11,0,0,1,149.71,280.31Z" style="fill:#FFC100"></path><polygon points="138.59 262.69 148.85 256.77 148.85 252.82 138.59 258.74 138.59 262.69" style="fill:#455a64"></polygon><polygon points="169.38 248.87 159.12 254.79 159.12 286.39 169.38 280.47 169.38 248.87" style="fill:#e0e0e0"></polygon><polygon points="162.54 276.52 159.12 278.5 159.12 254.79 162.54 252.82 162.54 276.52" style="opacity:0.2"></polygon><polygon points="169.38 280.47 162.54 276.52 162.54 252.82 169.38 248.87 169.38 280.47" style="opacity:0.1"></polygon><path d="M169.4,286.92v46.82c0,.43-.12.65-.22.71s-.32.05-.66-.15a4,4,0,0,1-1.72-3V291.64a3.09,3.09,0,0,0-1.54-2.67l-2.16-1.25v0a.3.3,0,0,0-.29,0,1.35,1.35,0,0,0-.5,1.07.54.54,0,0,0,.2.49h0l1.91,1.11a1.4,1.4,0,0,1,.7,1.21v39.63a5.62,5.62,0,0,0,2.56,4.49,2.71,2.71,0,0,0,1.36.4,1.93,1.93,0,0,0,1-.25,2.38,2.38,0,0,0,1.06-2.17V286.92Z" style="fill:#263238"></path><path d="M165.53,273.69l0,0c.2-.11.71-.42.73-.42.2-.12.37.21.82.44a2,2,0,0,0,2-.14l0,1.83-.73.43a4,4,0,0,1-2.07-.69C165.43,274.55,165.31,273.87,165.53,273.69Z" style="fill:#37474f"></path><path d="M168.37,274a2,2,0,0,1-2,.14c-.49-.24-.65-.6-.87-.42s-.13.91.7,1.49a3.93,3.93,0,0,0,2.1.63Z" style="fill:#455a64"></path><path d="M167.72,286.91a1.27,1.27,0,0,1,.76-1,4,4,0,0,1,3.57,0,1.24,1.24,0,0,1,.72,1v1a1.26,1.26,0,0,1-.75,1,3.94,3.94,0,0,1-3.57,0,1.26,1.26,0,0,1-.73-1Z" style="fill:#455a64"></path><path d="M162.34,269.75v5.13a3.48,3.48,0,0,0,1.56,2.71l4.16,2.4,1.12-.65V278L165.85,276a2.66,2.66,0,0,1-1.19-2.06v-4.43a5.31,5.31,0,0,1,.87-2.88l.87-1.07-.75-1-.83,1-.29-.37-1.1,1.35A5.83,5.83,0,0,0,162.34,269.75Z" style="fill:#FFC100"></path><path d="M165.53,266.66a5.31,5.31,0,0,0-.87,2.88V274a2.66,2.66,0,0,0,1.19,2.06l3.33,1.92v1.39l-4.16-2.4a3.46,3.46,0,0,1-1.57-2.71v-5.12a5.87,5.87,0,0,1,1.1-3.16l1.1-1.35.75,1Z" style="fill:#FFC100"></path><path d="M165.53,266.66a5.31,5.31,0,0,0-.87,2.88V274a2.66,2.66,0,0,0,1.19,2.06l3.33,1.92v1.39l-4.16-2.4a3.46,3.46,0,0,1-1.57-2.71v-5.12a5.87,5.87,0,0,1,1.1-3.16l1.1-1.35.75,1Z" style="opacity:0.2"></path><path d="M172.05,285.89a1.24,1.24,0,0,1,.72,1,1.26,1.26,0,0,1-.75,1,3.94,3.94,0,0,1-3.57,0,1.24,1.24,0,0,1-.73-1,1.27,1.27,0,0,1,.76-1A4,4,0,0,1,172.05,285.89Z" style="fill:#37474f"></path><path d="M168.05,271.29a1.11,1.11,0,0,1,.66-.89,3.45,3.45,0,0,1,3.1,0,1.07,1.07,0,0,1,.63.88c0,.15,0,15.3,0,15.46a1.11,1.11,0,0,1-.65.89,3.39,3.39,0,0,1-3.1,0,1.07,1.07,0,0,1-.64-.89C168.06,286.59,168.05,271.44,168.05,271.29Z" style="fill:#455a64"></path><path d="M171.81,270.4a1.07,1.07,0,0,1,.63.88,1.12,1.12,0,0,1-.65.9,3.45,3.45,0,0,1-3.1,0,1.08,1.08,0,0,1-.64-.89,1.11,1.11,0,0,1,.66-.89A3.45,3.45,0,0,1,171.81,270.4Z" style="fill:#37474f"></path><polygon points="163.41 254.89 161.55 256.44 160.59 257.24 160.03 256.5 159.12 255.3 159.12 254.79 160.52 253.98 162.04 253.11 163.41 254.89" style="fill:#455a64"></polygon><polygon points="161.93 255.8 161.45 256.31 160.59 257.24 160.03 256.5 159.12 255.3 159.12 254.79 160.52 253.98 161.93 255.8" style="fill:#37474f"></polygon><path d="M175.14,265.64v4a1.16,1.16,0,0,1-.53.91l-3.85,2.21a1.12,1.12,0,0,1-1,0l-.34-.19-3.45-2a3.27,3.27,0,0,1-.88-.78L159.12,262v-3l1.2-3.41a1.85,1.85,0,0,1,.73-.86l3.84-2.23a.71.71,0,0,1,.89.18l3.6,4.74,5.39,7.08A2,2,0,0,1,175.14,265.64Z" style="fill:#FFC100"></path><path d="M175.14,265.64v4a1.16,1.16,0,0,1-.53.91l-3.85,2.21a1.12,1.12,0,0,1-1,0l-.34-.19-3.45-2a3.27,3.27,0,0,1-.88-.78L159.12,262v-3l1.2-3.41a1.85,1.85,0,0,1,.73-.86l3.84-2.23a.71.71,0,0,1,.89.18l3.6,4.74,5.39,7.08A2,2,0,0,1,175.14,265.64Z" style="fill:#fff;opacity:0.2"></path><path d="M170.24,268.46v4c0,.33-.22.45-.5.28l-.36-.21-3.45-2a3.27,3.27,0,0,1-.88-.78L159.12,262v-3l.91-2.57.29-.84c.11-.31.36-.35.57-.08l.56.74.1.13,7.83,10.29.5.65A2.11,2.11,0,0,1,170.24,268.46Z" style="fill:#FFC100"></path><polygon points="159.12 250.84 169.38 244.92 169.38 240.97 159.12 246.89 159.12 250.84" style="fill:#f28f8f"></polygon><polygon points="147.3 214.08 111 235.04 111 253 116.19 256 152.49 235.04 152.49 217.08 147.3 214.08" style="fill:#37474f"></polygon><polygon points="116.19 256 152.49 235.04 152.49 217.08 116.19 238.03 116.19 256" style="fill:#455a64"></polygon><polygon points="142.01 178.86 94.11 206.51 121.48 222.31 169.38 194.66 142.01 178.86" style="fill:#FFC100"></polygon><polygon points="142.01 178.86 94.11 206.51 121.48 222.31 169.38 194.66 142.01 178.86" style="fill:#fff;opacity:0.2"></polygon><polygon points="94.11 206.51 94.12 230.21 121.48 246.01 121.48 222.31 94.11 206.51" style="fill:#FFC100"></polygon><polygon points="94.11 206.51 94.12 230.21 121.48 246.01 121.48 222.31 94.11 206.51" style="opacity:0.2"></polygon><polygon points="121.48 246.01 169.38 218.36 169.38 194.66 121.48 222.31 121.48 246.01" style="fill:#FFC100"></polygon><polygon points="167.69 197.57 167.69 217.39 123.17 243.09 123.17 223.28 165.96 198.57 167.69 197.57" style="fill:#FFC100"></polygon><polygon points="167.69 197.57 167.69 217.39 123.17 243.09 123.17 223.28 165.96 198.57 167.69 197.57" style="opacity:0.2"></polygon><polygon points="165.96 198.57 165.96 216.39 123.17 241.09 123.17 223.28 165.96 198.57" style="fill:#fff"></polygon><polygon points="165.96 216.39 167.69 217.39 167.69 197.57 165.96 198.57 165.96 216.39" style="opacity:0.2"></polygon><path d="M135.84,224.87c0,3-1.83,6.51-4.09,7.82s-4.1-.08-4.1-3.1,1.84-6.51,4.1-7.81S135.84,221.86,135.84,224.87Z" style="fill:#FFC100"></path><path d="M133.83,227.28a5,5,0,0,1-2.08,4c-1.16.67-2.09,0-2.09-1.58,0-2.56,2.09-6.5,2.09-6.5A5.49,5.49,0,0,1,133.83,227.28Z" style="fill:#fff"></path><path d="M144.36,214.91a.12.12,0,0,1,.17,0,.32.32,0,0,1,.08.23v1.51a.71.71,0,0,1-.08.31.51.51,0,0,1-.17.22l-2.77,1.6v1.94l2.58-1.48a.14.14,0,0,1,.18,0,.3.3,0,0,1,.07.23V221a.7.7,0,0,1-.07.31.48.48,0,0,1-.18.21l-2.58,1.5v3.07a.82.82,0,0,1-.07.31.46.46,0,0,1-.18.22l-1.21.7a.15.15,0,0,1-.18,0,.32.32,0,0,1-.07-.23v-9.2a.67.67,0,0,1,.07-.31.46.46,0,0,1,.18-.22Z" style="fill:#455a64"></path><path d="M150.9,211.13a.13.13,0,0,1,.17,0,.32.32,0,0,1,.08.23v5.69a7.88,7.88,0,0,1-.21,1.85,6.58,6.58,0,0,1-.57,1.6,5.78,5.78,0,0,1-.9,1.3,5,5,0,0,1-1.14.92,2.79,2.79,0,0,1-1.14.4,1.25,1.25,0,0,1-.89-.27,1.84,1.84,0,0,1-.57-.94,5.22,5.22,0,0,1-.21-1.62v-5.68a.71.71,0,0,1,.08-.31.51.51,0,0,1,.17-.22l1.21-.7a.14.14,0,0,1,.18,0,.32.32,0,0,1,.08.23v5.63a1.91,1.91,0,0,0,.27,1.18c.18.22.45.22.82,0a1.87,1.87,0,0,0,.83-1,3.63,3.63,0,0,0,.28-1.49v-5.63a.7.7,0,0,1,.07-.31.46.46,0,0,1,.18-.22Z" style="fill:#455a64"></path><path d="M157,215.29a.14.14,0,0,1,.18,0,.29.29,0,0,1,.07.22V217a.74.74,0,0,1-.07.32.48.48,0,0,1-.18.21l-4.38,2.53a.14.14,0,0,1-.18,0,.29.29,0,0,1-.07-.22v-9.21a.7.7,0,0,1,.07-.31.46.46,0,0,1,.18-.22l4.31-2.49a.13.13,0,0,1,.17,0,.29.29,0,0,1,.08.22v1.52a.75.75,0,0,1-.08.31.46.46,0,0,1-.17.21l-2.85,1.65v1.54l2.64-1.53a.14.14,0,0,1,.18,0,.32.32,0,0,1,.07.23v1.51a.7.7,0,0,1-.07.31.46.46,0,0,1-.18.22l-2.64,1.53V217Z" style="fill:#455a64"></path><path d="M162.86,211.92a.12.12,0,0,1,.17,0,.32.32,0,0,1,.08.23v1.51a.71.71,0,0,1-.08.31.44.44,0,0,1-.17.22l-4.29,2.47a.12.12,0,0,1-.17,0,.32.32,0,0,1-.07-.23v-9.2a.74.74,0,0,1,.07-.32.54.54,0,0,1,.17-.21l1.22-.7a.12.12,0,0,1,.17,0,.32.32,0,0,1,.08.23v7.31Z" style="fill:#455a64"></path><g id="freepik--charger-station--inject-66"><polygon points="62.88 282.7 56.03 262.95 43 255.44 43 271.24 43 271.23 43 393.69 62.87 405.16 62.88 282.7 62.88 282.7" style="fill:#FFC100"></polygon><g style="opacity:0.2"><polygon points="62.88 282.7 56.03 262.95 43 255.44 43 271.24 43 271.23 43 393.69 62.87 405.16 62.88 282.7 62.88 282.7"></polygon></g><polygon points="93.66 241.22 100.5 260.98 62.88 282.7 56.03 262.95 93.66 241.22" style="fill:#FFC100"></polygon><polygon points="93.66 241.22 100.5 260.98 62.88 282.7 56.03 262.95 93.66 241.22" style="fill:#fff;opacity:0.2"></polygon><polygon points="93.66 241.22 80.64 233.71 43 255.44 56.03 262.95 93.66 241.22" style="fill:#FFC100"></polygon><polygon points="93.66 241.22 80.64 233.71 43 255.44 56.03 262.95 93.66 241.22" style="fill:#fff;opacity:0.1"></polygon><path d="M62.87,282.7c.18,10.21.26,20.41.33,30.62l.09,30.61-.09,30.62-.12,15.3-.21,15.31-.2-15.31-.12-15.3-.1-30.62.1-30.61C62.62,303.11,62.7,292.91,62.87,282.7Z" style="fill:#fff"></path><path d="M100.5,261c-2.89,1.87-5.82,3.66-8.77,5.43s-5.92,3.5-8.88,5.25-6,3.41-9,5.07l-4.53,2.48c-1.52.8-3,1.62-4.57,2.4,1.44-.94,2.91-1.84,4.37-2.76l4.4-2.68c2.95-1.78,5.93-3.49,8.89-5.24s6-3.41,9-5.07S97.44,262.55,100.5,261Z" style="fill:#fff"></path><path d="M93.45,241.35c-2.89,1.87-5.83,3.66-8.77,5.44s-5.93,3.49-8.89,5.24-6,3.41-9,5.07l-4.52,2.48c-1.53.8-3,1.62-4.57,2.4,1.44-.94,2.91-1.84,4.36-2.76l4.41-2.68c2.94-1.78,5.92-3.49,8.88-5.24s6-3.41,9-5.07S90.38,242.92,93.45,241.35Z" style="fill:#fff"></path><polygon points="62.88 282.7 100.5 260.98 100.51 383.44 62.87 405.16 62.88 282.7" style="fill:#FFC100"></polygon><polygon points="66.25 284.65 97.14 266.81 97.14 381.49 66.24 399.33 66.25 284.65" style="fill:#455a64"></polygon><polygon points="93.66 272.82 93.66 301.96 69.71 315.78 69.71 286.65 91.95 273.81 93.66 272.82" style="fill:#37474f"></polygon><polygon points="93.66 272.82 91.95 273.81 91.96 300.98 93.66 301.96 93.66 272.82" style="fill:#263238"></polygon><polygon points="91.96 300.98 69.71 313.81 69.71 286.65 91.95 273.81 91.96 300.98" style="fill:#FFC100"></polygon><polygon points="91.96 300.98 69.71 313.81 69.71 286.65 91.95 273.81 91.96 300.98" style="fill:#fff;opacity:0.5"></polygon><path d="M74.05,297.61l14.43-8.34a2,2,0,0,0,.91-1.51c0-.54-.41-.75-.91-.46l-14.43,8.33a2,2,0,0,0-.91,1.52C73.14,297.69,73.55,297.9,74.05,297.61Zm14.43-6.36-14.43,8.34a2,2,0,0,0-.91,1.51c0,.54.41.75.91.46l14.43-8.33a2,2,0,0,0,.91-1.52C89.39,291.17,89,291,88.48,291.25Zm0,4-14.43,8.33a2,2,0,0,0-.91,1.51c0,.55.41.75.91.46l14.43-8.33a2,2,0,0,0,.91-1.51C89.39,295.12,89,294.92,88.48,295.21Z" style="fill:#FFC100;opacity:0.5"></path></g><g id="freepik--Terminal--inject-66"><g id="freepik--Device--inject-66"><path d="M57.33,306.92a14.32,14.32,0,0,1,.08,1.86v5.45a1.16,1.16,0,0,1-.53.91l-9.54,5.51a1.14,1.14,0,0,1-1.05,0l-5-2.89a1.14,1.14,0,0,1-.52-.91V294.46a1.13,1.13,0,0,1,.52-.9L50.83,288a1.21,1.21,0,0,1,1.05,0l2.82,1.63a1,1,0,0,1,.5.76C55.55,293.16,57.2,306.11,57.33,306.92Z" style="fill:#455a64"></path><path d="M55.2,290.43c.3,3,.63,6,1,9l.54,4.48a42.48,42.48,0,0,1,.41,4.46c.05,1.48,0,3,.06,4.5V314a1.08,1.08,0,0,1-.28.92c-.53.38-1.26.76-1.88,1.15q-3.9,2.26-7.73,4.63,4-2.13,7.88-4.37c.66-.4,1.29-.68,2-1.17a1.46,1.46,0,0,0,.39-1.16v-1.12c0-1.51,0-3,0-4.52a41.56,41.56,0,0,0-.5-4.5l-.61-4.46Q55.91,294.88,55.2,290.43Z" style="fill:#37474f"></path><path d="M51.88,288l2.73,1.58a1,1,0,0,1,.16.12l-10.59,6.12-.16-.12-2.74-1.58c-.26-.15-.48-.05-.52.22h0a.17.17,0,0,1,0-.07.07.07,0,0,1,0-.05s0-.05,0-.08l0-.05,0-.07,0-.06,0-.06,0-.06a.1.1,0,0,1,0-.05l0-.06,0-.05.07,0,0,0,.09-.07h0L50.83,288,51,288A1.35,1.35,0,0,1,51.88,288Z" style="fill:#37474f"></path><path d="M46.73,313c-.35-2.28-1.81-13.91-2.13-16.49a1,1,0,0,0-.5-.76l-2.82-1.63c-.29-.17-.52,0-.52.3v22.39a1.14,1.14,0,0,0,.52.91l5,2.89c.28.17.52,0,.52-.3v-5.46A14.24,14.24,0,0,0,46.73,313Z" style="fill:#263238"></path><path d="M48.32,314a14.46,14.46,0,0,0-.07-1.86,13.46,13.46,0,0,0-.35-1.47.5.5,0,0,1,.22-.54l6.93-4a.28.28,0,0,1,.43.17c.14.51.26,1,.34,1.47a14.39,14.39,0,0,1,.08,1.86v3.07a.74.74,0,0,1-.33.56l-6.92,4c-.18.11-.32,0-.32-.18C48.32,316.1,48.32,315,48.32,314Z" style="fill:#e0e0e0"></path><path d="M55.29,313.11a.7.7,0,0,0,.32-.56v-3.07a14.24,14.24,0,0,0-.08-1.85,11,11,0,0,0-.34-1.47.08.08,0,0,0,0-.05.28.28,0,0,0-.12,0l-6.93,4a.5.5,0,0,0-.22.54,13.46,13.46,0,0,1,.35,1.47,14.46,14.46,0,0,1,.07,1.86c0,1,0,2.08,0,3.07v0l0,0Z" style="fill:#fff"></path><path d="M53.78,305h0l.25.07.15-.21.85-.49a1,1,0,0,0,.5-1.08.55.55,0,0,0-.12-.21l0-.06-.27-.08h0a.74.74,0,0,0-.58.1l-1,.6a.44.44,0,0,0-.2.48c.07.23.14.46.22.7A.29.29,0,0,0,53.78,305Z" style="fill:#FFC100"></path><path d="M53.78,305h0l.25.07.15-.21.85-.49a1,1,0,0,0,.5-1.08.55.55,0,0,0-.12-.21l0-.06-.27-.08h0a.74.74,0,0,0-.58.1l-1,.6a.44.44,0,0,0-.2.48c.07.23.14.46.22.7A.29.29,0,0,0,53.78,305Z" style="opacity:0.30000000000000004"></path><path d="M53.83,303.73l1-.59a.59.59,0,0,1,.93.24,1,1,0,0,1-.51,1.09l-1,.59a.27.27,0,0,1-.4-.15c-.07-.23-.15-.46-.22-.69A.45.45,0,0,1,53.83,303.73Z" style="fill:#FFC100"></path><path d="M53.83,303.73l1-.59a.59.59,0,0,1,.93.24,1,1,0,0,1-.51,1.09l-1,.59a.27.27,0,0,1-.4-.15c-.07-.23-.15-.46-.22-.69A.45.45,0,0,1,53.83,303.73Z" style="fill:#fff;opacity:0.30000000000000004"></path><path d="M47.8,308.31h0l.26.07,0-.06a.73.73,0,0,0,.3-.11l1-.59a.45.45,0,0,0,.19-.49c-.08-.23-.15-.46-.22-.68l.08-.12-.27-.08h0a.3.3,0,0,0-.2,0l-1,.59a1,1,0,0,0-.52,1.09A.49.49,0,0,0,47.8,308.31Z" style="fill:#FFC100"></path><path d="M47.8,308.31h0l.26.07,0-.06a.73.73,0,0,0,.3-.11l1-.59a.45.45,0,0,0,.19-.49c-.08-.23-.15-.46-.22-.68l.08-.12-.27-.08h0a.3.3,0,0,0-.2,0l-1,.59a1,1,0,0,0-.52,1.09A.49.49,0,0,0,47.8,308.31Z" style="opacity:0.30000000000000004"></path><path d="M48.23,307l1-.59a.26.26,0,0,1,.39.15c.07.23.14.46.22.69a.42.42,0,0,1-.19.49l-1,.6c-.41.23-.83.12-.95-.25A1,1,0,0,1,48.23,307Z" style="fill:#FFC100"></path><path d="M48.23,307l1-.59a.26.26,0,0,1,.39.15c.07.23.14.46.22.69a.42.42,0,0,1-.19.49l-1,.6c-.41.23-.83.12-.95-.25A1,1,0,0,1,48.23,307Z" style="fill:#fff;opacity:0.30000000000000004"></path><path d="M50.69,306.84h0l.28.09.12-.19,1.37-.79a.59.59,0,0,0,.25-.67c-.06-.2-.12-.4-.19-.59a.14.14,0,0,0,0-.06l.08-.11-.29-.09h0a.43.43,0,0,0-.29,0l-1.47.85a.63.63,0,0,0-.27.68c.06.2.12.39.19.59A.37.37,0,0,0,50.69,306.84Z" style="fill:#FFC100"></path><path d="M50.69,306.84h0l.28.09.12-.19,1.37-.79a.59.59,0,0,0,.25-.67c-.06-.2-.12-.4-.19-.59a.14.14,0,0,0,0-.06l.08-.11-.29-.09h0a.43.43,0,0,0-.29,0l-1.47.85a.63.63,0,0,0-.27.68c.06.2.12.39.19.59A.37.37,0,0,0,50.69,306.84Z" style="opacity:0.30000000000000004"></path><path d="M50.72,306.67c-.06-.19-.13-.39-.19-.59a.63.63,0,0,1,.27-.68l1.47-.84a.35.35,0,0,1,.54.21c.06.2.12.39.19.59a.61.61,0,0,1-.26.68l-1.47.84A.36.36,0,0,1,50.72,306.67Z" style="fill:#FFC100"></path><path d="M49,303.3l-.14.23.12,1a.44.44,0,0,1-.2.41l-1.17.68-.19.31-.26-.15h0a.2.2,0,0,1-.09-.15l-.15-1.18a.47.47,0,0,1,.2-.42l1.42-.82a.19.19,0,0,1,.19,0h0Z" style="fill:#FFC100"></path><path d="M49,303.3l-.14.23.12,1a.44.44,0,0,1-.2.41l-1.17.68-.19.31-.26-.15h0a.2.2,0,0,1-.09-.15l-.15-1.18a.47.47,0,0,1,.2-.42l1.42-.82a.19.19,0,0,1,.19,0h0Z" style="opacity:0.30000000000000004"></path><path d="M47.6,305.86,49,305a.43.43,0,0,0,.21-.41l-.16-1.18a.17.17,0,0,0-.27-.14l-1.42.82a.48.48,0,0,0-.21.42l.16,1.18A.17.17,0,0,0,47.6,305.86Z" style="fill:#FFC100"></path><path d="M47.6,305.86,49,305a.43.43,0,0,0,.21-.41l-.16-1.18a.17.17,0,0,0-.27-.14l-1.42.82a.48.48,0,0,0-.21.42l.16,1.18A.17.17,0,0,0,47.6,305.86Z" style="fill:#fff;opacity:0.30000000000000004"></path><path d="M48,295.61l-.14.23.12,1a.44.44,0,0,1-.21.41l-1.16.67-.19.32-.26-.15h0a.22.22,0,0,1-.08-.15l-.16-1.18a.48.48,0,0,1,.21-.42l1.42-.82a.19.19,0,0,1,.19,0h0Z" style="fill:#FFC100"></path><path d="M48,295.61l-.14.23.12,1a.44.44,0,0,1-.21.41l-1.16.67-.19.32-.26-.15h0a.22.22,0,0,1-.08-.15l-.16-1.18a.48.48,0,0,1,.21-.42l1.42-.82a.19.19,0,0,1,.19,0h0Z" style="opacity:0.30000000000000004"></path><path d="M46.61,298.17l1.42-.82a.48.48,0,0,0,.21-.41l-.16-1.18c0-.16-.14-.22-.27-.14l-1.42.82a.44.44,0,0,0-.21.42l.15,1.18A.17.17,0,0,0,46.61,298.17Z" style="fill:#FFC100"></path><path d="M46.61,298.17l1.42-.82a.48.48,0,0,0,.21-.41l-.16-1.18c0-.16-.14-.22-.27-.14l-1.42.82a.44.44,0,0,0-.21.42l.15,1.18A.17.17,0,0,0,46.61,298.17Z" style="fill:#fff;opacity:0.30000000000000004"></path><path d="M48.66,300.73l-.14.24.12.95a.44.44,0,0,1-.21.41l-1.16.67-.19.31-.26-.15h0a.18.18,0,0,1-.08-.14l-.15-1.19a.45.45,0,0,1,.2-.41l1.42-.82a.19.19,0,0,1,.19,0h0Z" style="fill:#FFC100"></path><path d="M48.66,300.73l-.14.24.12.95a.44.44,0,0,1-.21.41l-1.16.67-.19.31-.26-.15h0a.18.18,0,0,1-.08-.14l-.15-1.19a.45.45,0,0,1,.2-.41l1.42-.82a.19.19,0,0,1,.19,0h0Z" style="opacity:0.30000000000000004"></path><path d="M47.27,303.3l1.42-.82a.46.46,0,0,0,.21-.42l-.16-1.18a.17.17,0,0,0-.27-.13l-1.42.82a.44.44,0,0,0-.21.41l.16,1.18A.17.17,0,0,0,47.27,303.3Z" style="fill:#FFC100"></path><path d="M47.27,303.3l1.42-.82a.46.46,0,0,0,.21-.42l-.16-1.18a.17.17,0,0,0-.27-.13l-1.42.82a.44.44,0,0,0-.21.41l.16,1.18A.17.17,0,0,0,47.27,303.3Z" style="fill:#fff;opacity:0.30000000000000004"></path><path d="M48.33,298.17l-.14.23.12,1a.45.45,0,0,1-.21.42l-1.16.67-.19.31-.26-.15h0a.22.22,0,0,1-.08-.15l-.16-1.18a.47.47,0,0,1,.21-.41l1.42-.83a.19.19,0,0,1,.19,0h0Z" style="fill:#FFC100"></path><path d="M48.33,298.17l-.14.23.12,1a.45.45,0,0,1-.21.42l-1.16.67-.19.31-.26-.15h0a.22.22,0,0,1-.08-.15l-.16-1.18a.47.47,0,0,1,.21-.41l1.42-.83a.19.19,0,0,1,.19,0h0Z" style="opacity:0.30000000000000004"></path><path d="M46.94,300.74l1.42-.83a.45.45,0,0,0,.21-.41l-.16-1.18a.17.17,0,0,0-.27-.14l-1.42.83a.43.43,0,0,0-.21.41l.15,1.18A.18.18,0,0,0,46.94,300.74Z" style="fill:#FFC100"></path><path d="M46.94,300.74l1.42-.83a.45.45,0,0,0,.21-.41l-.16-1.18a.17.17,0,0,0-.27-.14l-1.42.83a.43.43,0,0,0-.21.41l.15,1.18A.18.18,0,0,0,46.94,300.74Z" style="fill:#fff;opacity:0.30000000000000004"></path><path d="M52.16,301.47l-.14.23.12.95a.44.44,0,0,1-.21.41l-1.16.67-.19.31-.26-.15h0a.18.18,0,0,1-.08-.14l-.16-1.18a.49.49,0,0,1,.21-.42l1.42-.82a.19.19,0,0,1,.19,0h0Z" style="fill:#FFC100"></path><path d="M52.16,301.47l-.14.23.12.95a.44.44,0,0,1-.21.41l-1.16.67-.19.31-.26-.15h0a.18.18,0,0,1-.08-.14l-.16-1.18a.49.49,0,0,1,.21-.42l1.42-.82a.19.19,0,0,1,.19,0h0Z" style="opacity:0.30000000000000004"></path><path d="M50.77,304l1.42-.82a.46.46,0,0,0,.21-.42l-.16-1.18a.17.17,0,0,0-.27-.13l-1.42.82a.44.44,0,0,0-.21.41l.15,1.18A.17.17,0,0,0,50.77,304Z" style="fill:#FFC100"></path><path d="M50.77,304l1.42-.82a.46.46,0,0,0,.21-.42l-.16-1.18a.17.17,0,0,0-.27-.13l-1.42.82a.44.44,0,0,0-.21.41l.15,1.18A.17.17,0,0,0,50.77,304Z" style="fill:#fff;opacity:0.30000000000000004"></path><path d="M51.17,293.77,51,294l.13.94a.46.46,0,0,1-.21.42l-1.16.67-.19.31-.26-.15h0a.16.16,0,0,1-.08-.15l-.16-1.18a.44.44,0,0,1,.21-.41l1.42-.82a.19.19,0,0,1,.19,0h0Z" style="fill:#FFC100"></path><path d="M51.17,293.77,51,294l.13.94a.46.46,0,0,1-.21.42l-1.16.67-.19.31-.26-.15h0a.16.16,0,0,1-.08-.15l-.16-1.18a.44.44,0,0,1,.21-.41l1.42-.82a.19.19,0,0,1,.19,0h0Z" style="opacity:0.30000000000000004"></path><path d="M49.78,296.34l1.42-.82a.46.46,0,0,0,.2-.42l-.15-1.18a.17.17,0,0,0-.27-.13l-1.43.82a.45.45,0,0,0-.2.41l.15,1.18A.18.18,0,0,0,49.78,296.34Z" style="fill:#FFC100"></path><path d="M49.78,296.34l1.42-.82a.46.46,0,0,0,.2-.42l-.15-1.18a.17.17,0,0,0-.27-.13l-1.43.82a.45.45,0,0,0-.2.41l.15,1.18A.18.18,0,0,0,49.78,296.34Z" style="fill:#fff;opacity:0.30000000000000004"></path><path d="M51.83,298.9l-.14.23.12.95a.45.45,0,0,1-.21.42l-1.16.67-.19.31-.26-.15h0a.22.22,0,0,1-.08-.15L49.75,300a.45.45,0,0,1,.21-.41l1.42-.82a.17.17,0,0,1,.19,0h0Z" style="fill:#FFC100"></path><path d="M51.83,298.9l-.14.23.12.95a.45.45,0,0,1-.21.42l-1.16.67-.19.31-.26-.15h0a.22.22,0,0,1-.08-.15L49.75,300a.45.45,0,0,1,.21-.41l1.42-.82a.17.17,0,0,1,.19,0h0Z" style="opacity:0.30000000000000004"></path><path d="M50.44,301.47l1.42-.83a.45.45,0,0,0,.21-.41l-.16-1.18a.17.17,0,0,0-.27-.14l-1.42.83a.43.43,0,0,0-.21.41l.15,1.18A.18.18,0,0,0,50.44,301.47Z" style="fill:#FFC100"></path><path d="M50.44,301.47l1.42-.83a.45.45,0,0,0,.21-.41l-.16-1.18a.17.17,0,0,0-.27-.14l-1.42.83a.43.43,0,0,0-.21.41l.15,1.18A.18.18,0,0,0,50.44,301.47Z" style="fill:#fff;opacity:0.30000000000000004"></path><path d="M51.5,296.34l-.15.23.13.95a.43.43,0,0,1-.21.41l-1.16.67-.19.32-.26-.15h0a.22.22,0,0,1-.08-.15l-.16-1.18a.48.48,0,0,1,.21-.42l1.42-.82a.19.19,0,0,1,.19,0h0Z" style="fill:#FFC100"></path><path d="M51.5,296.34l-.15.23.13.95a.43.43,0,0,1-.21.41l-1.16.67-.19.32-.26-.15h0a.22.22,0,0,1-.08-.15l-.16-1.18a.48.48,0,0,1,.21-.42l1.42-.82a.19.19,0,0,1,.19,0h0Z" style="opacity:0.30000000000000004"></path><path d="M50.11,298.9l1.42-.82a.45.45,0,0,0,.2-.41l-.15-1.18c0-.16-.14-.22-.27-.14l-1.42.82a.44.44,0,0,0-.21.42l.15,1.18A.17.17,0,0,0,50.11,298.9Z" style="fill:#FFC100"></path><path d="M50.11,298.9l1.42-.82a.45.45,0,0,0,.2-.41l-.15-1.18c0-.16-.14-.22-.27-.14l-1.42.82a.44.44,0,0,0-.21.42l.15,1.18A.17.17,0,0,0,50.11,298.9Z" style="fill:#fff;opacity:0.30000000000000004"></path><path d="M55.33,299.63l-.15.24.13.94a.44.44,0,0,1-.21.42l-1.16.67-.19.31-.26-.15h0a.18.18,0,0,1-.08-.15l-.16-1.18a.46.46,0,0,1,.21-.41l1.42-.82a.19.19,0,0,1,.19,0h0Z" style="fill:#FFC100"></path><path d="M55.33,299.63l-.15.24.13.94a.44.44,0,0,1-.21.42l-1.16.67-.19.31-.26-.15h0a.18.18,0,0,1-.08-.15l-.16-1.18a.46.46,0,0,1,.21-.41l1.42-.82a.19.19,0,0,1,.19,0h0Z" style="opacity:0.30000000000000004"></path><path d="M53.94,302.2l1.42-.82a.47.47,0,0,0,.2-.42l-.15-1.18a.17.17,0,0,0-.27-.13l-1.42.82a.44.44,0,0,0-.21.41l.15,1.18A.18.18,0,0,0,53.94,302.2Z" style="fill:#FFC100"></path><path d="M53.94,302.2l1.42-.82a.47.47,0,0,0,.2-.42l-.15-1.18a.17.17,0,0,0-.27-.13l-1.42.82a.44.44,0,0,0-.21.41l.15,1.18A.18.18,0,0,0,53.94,302.2Z" style="fill:#fff;opacity:0.30000000000000004"></path><path d="M54.33,291.94l-.14.23.13.95a.48.48,0,0,1-.21.42l-1.16.67-.19.31-.26-.15h0a.23.23,0,0,1-.09-.15L52.26,293a.43.43,0,0,1,.21-.41l1.42-.82a.19.19,0,0,1,.19,0h0Z" style="fill:#FFC100"></path><path d="M54.33,291.94l-.14.23.13.95a.48.48,0,0,1-.21.42l-1.16.67-.19.31-.26-.15h0a.23.23,0,0,1-.09-.15L52.26,293a.43.43,0,0,1,.21-.41l1.42-.82a.19.19,0,0,1,.19,0h0Z" style="opacity:0.30000000000000004"></path><path d="M53,294.51l1.42-.82a.47.47,0,0,0,.2-.42l-.15-1.18a.17.17,0,0,0-.27-.14l-1.43.83a.44.44,0,0,0-.2.41l.15,1.18A.18.18,0,0,0,53,294.51Z" style="fill:#FFC100"></path><path d="M53,294.51l1.42-.82a.47.47,0,0,0,.2-.42l-.15-1.18a.17.17,0,0,0-.27-.14l-1.43.83a.44.44,0,0,0-.2.41l.15,1.18A.18.18,0,0,0,53,294.51Z" style="fill:#fff;opacity:0.30000000000000004"></path><path d="M54.67,294.51l-.15.23.13.95a.46.46,0,0,1-.21.41l-1.16.67-.19.31-.26-.14h0a.18.18,0,0,1-.09-.14l-.15-1.18a.44.44,0,0,1,.21-.42l1.42-.82a.19.19,0,0,1,.19,0h0Z" style="fill:#FFC100"></path><path d="M54.67,294.51l-.15.23.13.95a.46.46,0,0,1-.21.41l-1.16.67-.19.31-.26-.14h0a.18.18,0,0,1-.09-.14l-.15-1.18a.44.44,0,0,1,.21-.42l1.42-.82a.19.19,0,0,1,.19,0h0Z" style="opacity:0.30000000000000004"></path><path d="M53.28,297.07l1.42-.82a.45.45,0,0,0,.2-.41l-.15-1.18c0-.16-.14-.22-.27-.14l-1.43.82a.45.45,0,0,0-.2.41l.15,1.19A.17.17,0,0,0,53.28,297.07Z" style="fill:#FFC100"></path><path d="M53.28,297.07l1.42-.82a.45.45,0,0,0,.2-.41l-.15-1.18c0-.16-.14-.22-.27-.14l-1.43.82a.45.45,0,0,0-.2.41l.15,1.19A.17.17,0,0,0,53.28,297.07Z" style="fill:#fff;opacity:0.30000000000000004"></path><path d="M55,297.07l-.15.23.13.95a.45.45,0,0,1-.21.41l-1.16.68-.19.31-.26-.15h0a.19.19,0,0,1-.08-.15l-.16-1.18a.45.45,0,0,1,.21-.41l1.42-.83a.19.19,0,0,1,.19,0h0Z" style="fill:#FFC100"></path><path d="M55,297.07l-.15.23.13.95a.45.45,0,0,1-.21.41l-1.16.68-.19.31-.26-.15h0a.19.19,0,0,1-.08-.15l-.16-1.18a.45.45,0,0,1,.21-.41l1.42-.83a.19.19,0,0,1,.19,0h0Z" style="opacity:0.30000000000000004"></path><path d="M53.61,299.64l1.42-.83a.44.44,0,0,0,.2-.41l-.15-1.18a.17.17,0,0,0-.27-.14l-1.42.82a.45.45,0,0,0-.21.42l.15,1.18A.18.18,0,0,0,53.61,299.64Z" style="fill:#FFC100"></path><path d="M53.61,299.64l1.42-.83a.44.44,0,0,0,.2-.41l-.15-1.18a.17.17,0,0,0-.27-.14l-1.42.82a.45.45,0,0,0-.21.42l.15,1.18A.18.18,0,0,0,53.61,299.64Z" style="fill:#fff;opacity:0.30000000000000004"></path><path d="M44.25,319.44h0a.07.07,0,0,1,0,.06l-.29.16a.2.2,0,0,1-.21,0L40.86,318,41,301.53l3.28,1.36Z" style="fill:#263238"></path><path d="M44.25,302.9s0,0,0,.05l-.28.17-.1,0v16.55a.17.17,0,0,0,.1,0l.29-.16a.08.08,0,0,0,0-.07h0Z" style="fill:#455a64"></path><path d="M44.21,303l-.29.17a.26.26,0,0,1-.21,0L41,301.53V301l3.24,1.86S44.26,302.92,44.21,303Z" style="fill:#37474f"></path><polygon points="40.97 301.53 40.78 301.42 40.13 301.9 40.13 318.44 40.86 318.02 40.97 301.53"></polygon><path d="M39.88,301.47l.88-.5a.2.2,0,0,1,.21,0v.56a.26.26,0,0,0-.21,0l-.28.17c-.06,0-.06.08,0,.12Z" style="fill:#37474f"></path><path d="M43.26,303.46l-1.13.69a.33.33,0,0,1-.14,0l-3.23-1.87a.08.08,0,0,1,0-.05v16.54h0s0,0,0,.06L42,320.66a.26.26,0,0,0,.21,0l1-.59s.05,0,0-.07Z" style="fill:#263238"></path><path d="M43.26,303.46V320s0,.05-.05.07l-1,.59-.1,0,0-16.53Z" style="fill:#455a64"></path><path d="M42.13,304.15a.33.33,0,0,1-.14,0l-3.24-1.87s0-.08,0-.12l1.13-.65.6.35,2.74,1.58a.07.07,0,0,1,0,.06Z" style="fill:#37474f"></path></g></g></g></g><g id="freepik--Plants--inject-66"><g id="freepik--plants--inject-66"><path d="M70,413.16l5.87-3.4s3.5-14.53,2.11-27.61c-2-18.38-14.07-25.3-18.67-23.72s-5.93,6.94,1.68,17.89C65.45,382.78,71,396.24,70,413.16Z" style="fill:#FFC100"></path><g style="opacity:0.65"><path d="M70,413.16l5.87-3.4s3.5-14.53,2.11-27.61c-2-18.38-14.07-25.3-18.67-23.72s-5.93,6.94,1.68,17.89C65.45,382.78,71,396.24,70,413.16Z" style="fill:#fff"></path></g><path d="M72.4,406h-.06a.41.41,0,0,1-.32-.48c3.22-16.95-2.7-36-10-43.94a.41.41,0,0,1,0-.57.4.4,0,0,1,.58,0c7.47,8.07,13.51,27.44,10.24,44.65A.41.41,0,0,1,72.4,406Z" style="fill:#fff"></path><path d="M55.18,421.69c-.88.45-3.22-1.55-3.87-2a8.21,8.21,0,0,1-2.55-3.25,7.67,7.67,0,0,1-.45-4.61,18,18,0,0,1,.71-2.41c.26-.78.53-1.56.8-2.33a5.92,5.92,0,0,0,.46-2.37c-.12-1.63-1.5-2.83-2.76-3.88s-2.82-2.65-2.71-4.6a6.85,6.85,0,0,1,1.92-4c1-1.13,2.15-2.12,3.05-3.32a4.85,4.85,0,0,0,1.14-3,5,5,0,0,0-.57-1.92,28,28,0,0,1-1.88-3.9,3.84,3.84,0,0,1,.86-4,4.5,4.5,0,0,1,3.4-.66,7.58,7.58,0,0,1,3.06,1.25c3,1.88,4.58,5.63,7.8,7.12A34.7,34.7,0,0,0,67.51,385a4.88,4.88,0,0,1,3.16,2.4c1.08,2.47-1.3,5.32-.58,7.92.63,2.3,2.79,3.27,3.92,5.37a4.86,4.86,0,0,1,.42,3,13.86,13.86,0,0,1-1.5,4.93,43.83,43.83,0,0,1-3,4.57S55.31,421.63,55.18,421.69Z" style="fill:#FFC100"></path><g style="opacity:0.30000000000000004"><path d="M55.18,421.69c-.88.45-3.22-1.55-3.87-2a8.21,8.21,0,0,1-2.55-3.25,7.67,7.67,0,0,1-.45-4.61,18,18,0,0,1,.71-2.41c.26-.78.53-1.56.8-2.33a5.92,5.92,0,0,0,.46-2.37c-.12-1.63-1.5-2.83-2.76-3.88s-2.82-2.65-2.71-4.6a6.85,6.85,0,0,1,1.92-4c1-1.13,2.15-2.12,3.05-3.32a4.85,4.85,0,0,0,1.14-3,5,5,0,0,0-.57-1.92,28,28,0,0,1-1.88-3.9,3.84,3.84,0,0,1,.86-4,4.5,4.5,0,0,1,3.4-.66,7.58,7.58,0,0,1,3.06,1.25c3,1.88,4.58,5.63,7.8,7.12A34.7,34.7,0,0,0,67.51,385a4.88,4.88,0,0,1,3.16,2.4c1.08,2.47-1.3,5.32-.58,7.92.63,2.3,2.79,3.27,3.92,5.37a4.86,4.86,0,0,1,.42,3,13.86,13.86,0,0,1-1.5,4.93,43.83,43.83,0,0,1-3,4.57S55.31,421.63,55.18,421.69Z" style="fill:#fff"></path></g><path d="M63.68,417.26h0a.38.38,0,0,1-.35-.42c1.4-15.25-5-32.49-9.94-37.65a.4.4,0,0,1,0-.55.39.39,0,0,1,.55,0c5.09,5.27,11.57,22.79,10.15,38.26A.39.39,0,0,1,63.68,417.26Z" style="fill:#fff"></path><path d="M62.17,398.46l-.12,0a51.49,51.49,0,0,0-11-2.34.39.39,0,0,1-.35-.42.37.37,0,0,1,.42-.35,52.16,52.16,0,0,1,11.2,2.39.38.38,0,0,1,.23.49A.4.4,0,0,1,62.17,398.46Z" style="fill:#fff"></path></g></g><g id="freepik--Car--inject-66"><g id="freepik--Vehicle--inject-66"><polygon points="454.82 338.54 425 321.73 441.55 312.18 454.78 319.85 454.82 338.54" style="fill:#263238"></polygon><path d="M333.55,408.52V389.84l-13.23-7.67-16.55,9.55,11.34,10.62L333.6,413v-4.47Z" style="fill:#263238"></path><path d="M321.29,404.64l4.28-8.49-10.18-5.89h0c-3.24-1.86-7.55-1.65-12.28,1.08-10.05,5.8-18.2,20.77-18.2,33.43,0,6.63,2.24,11.31,5.81,13.43h0l.14.08h0l10.43,6,4.51-9C314.36,428.82,321,415.93,321.29,404.64Z" style="fill:#37474f"></path><path d="M321.29,404.64l4.28-8.49-10.18-5.89h0c-3.24-1.86-7.55-1.65-12.28,1.08-10.05,5.8-18.2,20.77-18.2,33.43,0,6.63,2.24,11.31,5.81,13.43h0l.14.08h0l10.43,6,4.51-9C314.36,428.82,321,415.93,321.29,404.64Z" style="fill:#263238"></path><path d="M331.9,409.87c0,10.91-6.06,23.55-14.18,30.54,0,0,0,0,0,0a27,27,0,0,1-4,2.86c-10.05,5.81-18.21.24-18.2-12.42,0-9.56,4.65-20.45,11.26-27.7l.06-.06a29.15,29.15,0,0,1,6.88-5.67C323.75,391.65,331.9,397.21,331.9,409.87Z" style="fill:#37474f"></path><path d="M313.7,405.09c6.4-3.69,11.58.16,11.58,8.6s-5.18,18.28-11.58,22-11.58-.16-11.58-8.6S307.3,408.79,313.7,405.09Z" style="fill:#455a64"></path><path d="M318.93,418c-.44,4.2-3.14,8.65-6,9.93a2.8,2.8,0,0,1-3.15-.26c-1-.87-1.53-2.64-1.28-5,.44-4.2,3.13-8.65,6-9.93a3.13,3.13,0,0,1,2.11-.28h0C318.28,412.91,319.25,415,318.93,418Z" style="fill:#fafafa"></path><path d="M317.9,417.5c-.44,4.19-3.14,8.65-6,9.93a3.27,3.27,0,0,1-2.12.28c-1-.87-1.53-2.64-1.28-5,.44-4.2,3.13-8.65,6-9.93a3.13,3.13,0,0,1,2.11-.28h0C317.63,413.37,318.15,415.15,317.9,417.5Z" style="fill:#e0e0e0"></path><path d="M331.9,409.87c0,10.91-6.06,23.55-14.18,30.54a51.59,51.59,0,0,0,11.55-22.34c1.54-7.3,1-17.77-5.31-20.42s-14.53,2.93-17.14,5.47a29.15,29.15,0,0,1,6.88-5.67C323.75,391.65,331.9,397.21,331.9,409.87Z" style="fill:#455a64"></path><path d="M442.52,334.66l4.28-8.5-10.18-5.89h0c-3.24-1.86-7.55-1.65-12.28,1.08-10,5.81-18.2,20.77-18.2,33.43,0,6.63,2.24,11.31,5.81,13.43l10.59,6.13,4.51-9C435.59,358.84,442.19,346,442.52,334.66Z" style="fill:#37474f"></path><path d="M442.52,334.66l4.28-8.5-10.18-5.89h0c-3.24-1.86-7.55-1.65-12.28,1.08-10,5.81-18.2,20.77-18.2,33.43,0,6.63,2.24,11.31,5.81,13.43l10.59,6.13,4.51-9C435.59,358.84,442.19,346,442.52,334.66Z" style="fill:#263238"></path><path d="M453.13,339.88c0,10.92-6.06,23.55-14.18,30.54l0,0a27,27,0,0,1-4,2.86c-10.05,5.81-18.21.25-18.2-12.41,0-9.57,4.65-20.46,11.26-27.71l.06-.05a28.91,28.91,0,0,1,6.88-5.67C445,321.67,453.13,327.22,453.13,339.88Z" style="fill:#37474f"></path><path d="M434.93,335.11c6.4-3.7,11.58.15,11.58,8.59s-5.18,18.28-11.58,22-11.58-.15-11.58-8.59S428.53,338.8,434.93,335.11Z" style="fill:#455a64"></path><path d="M440.16,348.05c-.44,4.2-3.14,8.65-6,9.94a2.81,2.81,0,0,1-3.15-.27c-1-.86-1.53-2.64-1.28-5,.44-4.19,3.13-8.64,6-9.93a3.26,3.26,0,0,1,2.11-.28h0C439.51,342.92,440.48,345,440.16,348.05Z" style="fill:#fafafa"></path><path d="M439.13,347.51c-.44,4.2-3.14,8.65-6,9.94a3.26,3.26,0,0,1-2.12.27c-1-.86-1.53-2.64-1.28-5,.44-4.19,3.13-8.64,6-9.93a3.26,3.26,0,0,1,2.11-.28h0C438.86,343.39,439.38,345.16,439.13,347.51Z" style="fill:#e0e0e0"></path><path d="M453.13,339.88c0,10.92-6.06,23.55-14.18,30.54a51.59,51.59,0,0,0,11.55-22.34c1.54-7.29,1-17.77-5.31-20.42s-14.53,2.94-17.14,5.48a28.91,28.91,0,0,1,6.88-5.67C445,321.67,453.13,327.22,453.13,339.88Z" style="fill:#455a64"></path><path d="M211.75,376.45c46.7,26.95,67.93,14.7,107.7-8.27,38.55-22.26,81.48-55.18,85-57.7l-47.83,30.2a6.6,6.6,0,0,1-9.85-7.34l8.88-32.46c1.92-6.57,5.07-8,9.53-10.6,8.58-4.91,23.29-12.75,45.94-25.83,19.58-11.29,28.9-16.5,31.1-21.5v-.24c0-.2,0-.4,0-.6,0-.45,0-.89-.05-1.37-.35-4-2.73-8.81-27.7-23.89-14.11-8.52-26.42-12.67-37.63-12.67s-20.86,4-31.83,10c-13.79,7.51-60.48,31.84-68.05,38.38-23.2,20.67-38.12,36.22-47.77,48l-.64.77-.1-.26c.29.74-14.48,10.46-15.92,11.47-8,5.57-16.23,12-21.14,20.61-4.16,7.29-7.34,19.25-1.28,26.16S203.67,371.78,211.75,376.45Z" style="fill:#FFC100"></path><path d="M211.75,376.45c46.7,26.95,67.93,14.7,107.7-8.27,38.55-22.26,81.48-55.18,85-57.7l-47.83,30.2a6.6,6.6,0,0,1-9.85-7.34l8.88-32.46c1.92-6.57,5.07-8,9.53-10.6,8.58-4.91,23.29-12.75,45.94-25.83,19.58-11.29,28.9-16.5,31.1-21.5v-.24c0-.2,0-.4,0-.6,0-.45,0-.89-.05-1.37-.35-4-2.73-8.81-27.7-23.89-14.11-8.52-26.42-12.67-37.63-12.67s-20.86,4-31.83,10c-13.79,7.51-60.48,31.84-68.05,38.38-23.2,20.67-38.12,36.22-47.77,48l-.64.77-.1-.26c.29.74-14.48,10.46-15.92,11.47-8,5.57-16.23,12-21.14,20.61-4.16,7.29-7.34,19.25-1.28,26.16S203.67,371.78,211.75,376.45Z" style="fill:#fff;opacity:0.7000000000000001"></path><path d="M186.33,335.43c.51-.62,1-1.24,1.58-1.85a105.08,105.08,0,0,1,12.93-11.93c-2.75,3.9-4.56,9.33-5.74,14-1.47,5.78-2.48,11.77-1.82,17.7a24.85,24.85,0,0,0,5.81,13.76c3.57,4,8,6.7,12.65,9.38,46.71,27,67.94,14.7,107.71-8.26,38.55-22.26,81.48-55.17,85-57.69L342.3,349.58l13.32-48.7c1.92-6.58,5.07-8,9.53-10.6,8.58-4.91,23.29-12.75,45.94-25.82s30.94-17.94,31.08-23.78c.08.89.06,1.74.06,2.64,0,5.39.54,7.6-7.93,13.46-4.94,3.44-8.27,5.94-13.78,9.57a3.06,3.06,0,0,0,.15,5.21l13.87,8a16.73,16.73,0,0,0,18.76-1.4l4.1-5,1.59-1.4a8.49,8.49,0,0,0,.84-.75l0,0-2.51-2.36a33,33,0,0,1,3.28,1.51c.6.32,1.22.67,1.81,1.06a12.7,12.7,0,0,1,2.42,1.87c1.38,1.47,2.61,4,3.42,9.79.2,1.5.37,3.11.52,4.8.06.66.11,1.33.16,2,.11,1.5.19,3,.27,4.5.22,4.35.34,8.77.44,12.6,0,.22,0,.43,0,.65.05,1.65.1,3.18.15,4.53v0c.1,7.55-.08,17.95-10.62,24-1.91,1.1-.86.51-4.41,2.55a24.48,24.48,0,0,0-.11-2.46c-1.17-12.71-10.3-17.85-21.38-11.45-.68.39-1.37.81-2,1.28a45.56,45.56,0,0,0-13.17,15.32,53.61,53.61,0,0,0-5.09,13,48.78,48.78,0,0,0-.95,5.32,38.33,38.33,0,0,0-.37,3.89L333.6,408.55c0-.87-.05-1.69-.11-2.49-1.18-12.71-10.31-17.87-21.39-11.47-.68.4-1.37.84-2,1.31-5.11,3.54-9.72,9.05-13.16,15.32a53,53,0,0,0-4.71,11.51c-1,3.55-1.13,5-4.24,7.06-6.44,4.33-14.06,6.1-21.71,6.77-20.76,1.82-40.2-6.29-58.15-16.46-11.88-6.72-22.77-17.15-27.83-29.88C172.79,371.43,173.24,351.65,186.33,335.43Z" style="fill:#FFC100"></path><path d="M186.33,335.43c.51-.62,1-1.24,1.58-1.85a105.08,105.08,0,0,1,12.93-11.93c-2.75,3.9-4.56,9.33-5.74,14-1.47,5.78-2.48,11.77-1.82,17.7a24.85,24.85,0,0,0,5.81,13.76c3.57,4,8,6.7,12.65,9.38,46.71,27,67.94,14.7,107.71-8.26,38.55-22.26,81.48-55.17,85-57.69L342.3,349.58l13.32-48.7c1.92-6.58,5.07-8,9.53-10.6,8.58-4.91,23.29-12.75,45.94-25.82s30.94-17.94,31.08-23.78c.08.89.06,1.74.06,2.64,0,5.39.54,7.6-7.93,13.46-4.94,3.44-8.27,5.94-13.78,9.57a3.06,3.06,0,0,0,.15,5.21l13.87,8a16.73,16.73,0,0,0,18.76-1.4l4.1-5,1.59-1.4a8.49,8.49,0,0,0,.84-.75l0,0-2.51-2.36a33,33,0,0,1,3.28,1.51c.6.32,1.22.67,1.81,1.06a12.7,12.7,0,0,1,2.42,1.87c1.38,1.47,2.61,4,3.42,9.79.2,1.5.37,3.11.52,4.8.06.66.11,1.33.16,2,.11,1.5.19,3,.27,4.5.22,4.35.34,8.77.44,12.6,0,.22,0,.43,0,.65.05,1.65.1,3.18.15,4.53v0c.1,7.55-.08,17.95-10.62,24-1.91,1.1-.86.51-4.41,2.55a24.48,24.48,0,0,0-.11-2.46c-1.17-12.71-10.3-17.85-21.38-11.45-.68.39-1.37.81-2,1.28a45.56,45.56,0,0,0-13.17,15.32,53.61,53.61,0,0,0-5.09,13,48.78,48.78,0,0,0-.95,5.32,38.33,38.33,0,0,0-.37,3.89L333.6,408.55c0-.87-.05-1.69-.11-2.49-1.18-12.71-10.31-17.87-21.39-11.47-.68.4-1.37.84-2,1.31-5.11,3.54-9.72,9.05-13.16,15.32a53,53,0,0,0-4.71,11.51c-1,3.55-1.13,5-4.24,7.06-6.44,4.33-14.06,6.1-21.71,6.77-20.76,1.82-40.2-6.29-58.15-16.46-11.88-6.72-22.77-17.15-27.83-29.88C172.79,371.43,173.24,351.65,186.33,335.43Z" style="fill:#fff;opacity:0.5"></path><path d="M353.57,225l8.09-4.86c2.67-1.65,5.37-3.28,8-5-2.79,1.46-5.54,3-8.31,4.47l-8.26,4.58c-5.49,3.07-8.48,4.79-13.88,8s-10.79,6.46-16.12,9.81c5.57-2.94,11.07-6,16.56-9.05S348.17,228.21,353.57,225Zm54.5,21.61-8.25,4.58c-5.5,3.06-8.48,4.79-13.88,8s-10.8,6.47-16.13,9.82c5.57-2.94,11.07-6,16.57-9.05s8.48-4.79,13.88-8l8.09-4.85c2.67-1.66,5.37-3.28,8-5C413.59,243.59,410.84,245.11,408.07,246.6Zm-40.5-13.53,8.1-4.85c2.67-1.66,5.37-3.28,8-5-2.79,1.46-5.54,3-8.32,4.47l-8.25,4.58c-5.49,3.06-8.48,4.79-13.88,8s-10.79,6.47-16.12,9.82c5.57-2.94,11.07-6,16.56-9S362.17,236.3,367.57,233.07Zm18.68,10.79,8.09-4.86c2.68-1.65,5.37-3.28,8-5-2.79,1.46-5.54,3-8.31,4.47l-8.25,4.58c-5.49,3.07-8.48,4.79-13.88,8s-10.79,6.46-16.12,9.81c5.56-2.94,11.07-6,16.56-9.05S380.85,247.08,386.25,243.86Z" style="fill:#FFC100;opacity:0.5"></path><path d="M275.42,351.22q-3.33,1.44-6.57,3.06a123.22,123.22,0,0,0-12.53,7.3,67.53,67.53,0,0,0-8.57,6.47c-1.86,1.55-3.62,3.22-5.37,4.87-.89.82-1.71,1.71-2.54,2.58l-2.48,2.64c3.56-3.26,7.1-6.52,10.89-9.48a80.1,80.1,0,0,1,8.63-6.23c4-2.71,8.12-5.13,12.34-7.45a136.27,136.27,0,0,1,13-6.28C279.9,349.4,277.66,350.31,275.42,351.22Zm-36.15-20.84c-2,1.32-3.88,2.67-5.78,4.07-3.79,2.8-7.43,5.79-11,8.91a81.78,81.78,0,0,0-7.26,7c-1.61,1.71-3.15,3.49-4.69,5.28s-3,3.67-4.38,5.52c3.17-3.47,6.3-7,9.64-10.26s3.85-3.72,7.37-6.81S230.3,338,234,335.07s7.44-5.72,11.32-8.37C243.22,327.83,241.25,329.11,239.27,330.38Z" style="fill:#FFC100;opacity:0.5"></path><path d="M242,286.34h0l-.76,3.15c-1.74,3.26-5.59,7.38-7,7s-2-2.1-2.37-4.31v0a22.22,22.22,0,0,1-.33-3.22c-.12-3.49,1.44-11.63,6.29-13.79a2.5,2.5,0,0,1,2.87.64,5.82,5.82,0,0,1,1.4,2.31C243,280.57,242.14,286.21,242,286.34Z" style="fill:#263238"></path><path d="M241.27,289.49c-1.74,3.26-5.59,7.38-7,7s-2-2.1-2.37-4.31v0a22.22,22.22,0,0,1-.33-3.22c-.12-3.49,1.44-11.63,6.29-13.79a2.5,2.5,0,0,1,2.87.64l-.66,1.5c-3.39,1.45-4.3,6.68-4,10.66S239.33,291.54,241.27,289.49Z" style="fill:#455a64"></path><path d="M242.15,278.13c-1.22-1.3-4.26-1.37-6.82,2.15s-3.4,9.56-3.41,11.89a23.42,23.42,0,0,1-.32-3.21c-.12-3.49,1.43-11.63,6.28-13.8C239.9,274.26,241.57,276.33,242.15,278.13Z" style="fill:#37474f"></path><path d="M420.67,271.56l13.87,8c5.93,3.43,13.8,3.28,18.76-1.4l7.11-6.71c-2-3.39-11.49-19.36-18.21-25.43,0,2.73-1.21,5.4-4.31,7.82-4.74,3.7-11.86,8.87-17.37,12.5A3.06,3.06,0,0,0,420.67,271.56Z" style="fill:#37474f"></path><path d="M327,368.3l-6.61,4.18a1.07,1.07,0,0,0-.48.84l-.15,3.27a.65.65,0,0,0,1,.58l6.58-4.11a1.07,1.07,0,0,0,.5-.85l.16-3.34A.64.64,0,0,0,327,368.3Z" style="fill:#FFC100"></path><path d="M333.6,408.55V413l78.11-45.12v-4.47Z" style="fill:#37474f"></path><g style="opacity:0.2"><path d="M387.86,375.06h0a.43.43,0,0,1-.41-.45c0-.29,1.56-29.07.72-49.49a.43.43,0,0,1,.41-.45h0a.43.43,0,0,1,.43.41c.84,20.46-.7,49.29-.72,49.58A.42.42,0,0,1,387.86,375.06Z"></path></g><path d="M431.62,316a38.82,38.82,0,0,0-15.27,11.25A53,53,0,0,0,406.7,344c-1.23,3.44-2.44,7.19-2.52,10.87,0,.34.56.65.7.24.53-1.61.88-3.27,1.31-4.91s.9-3.17,1.43-4.73a57.72,57.72,0,0,1,4-9.1,49.37,49.37,0,0,1,11.77-14.26,63.1,63.1,0,0,1,8.42-5.69C432,316.34,431.86,315.87,431.62,316Z" style="opacity:0.2"></path><path d="M355.61,300.88,342.3,349.59l-8.68,5a33.61,33.61,0,0,1-30.57,1.56c-11.51-5.17-27.24-12.62-40.13-20.05a250,250,0,0,1-34.82-24.32,7.2,7.2,0,0,1-2-8.35c10.91-14.17,29.48-31.9,50.8-50.9-7.48,6.46,14.8,19.34,30.36,28.31s34.5,19.92,44.35,20.21A24.92,24.92,0,0,0,355.61,300.88Z" style="fill:#37474f"></path><path d="M423,298.05,342.3,349.59l13.31-48.71c8.18-1,6.91-.68,19.81-8.13l23.06-13.31a9.61,9.61,0,0,1,9.66,0l14.65,8.45A5.92,5.92,0,0,1,423,298.05Z" style="fill:#263238"></path><path d="M351.64,301.06a20.75,20.75,0,0,1-3.21-.41c.62,2.25-.11,5.19-1.46,10.54-2.26,8.93-8.91,30.67-10.73,36.5s-7.32,9-11.33,10.41a33.68,33.68,0,0,0,8.71-3.5l8.68-5,13.31-48.71A24.92,24.92,0,0,1,351.64,301.06Z"></path><path d="M382.68,324l7.81-4.87-4.27-32.64-5.48,3.16Z"></path><path d="M277,259.43c-7.35,4.64-20.86,18.22-28.06,26.3-8.36,9.38-12.08,18-.49,10.78,9-5.64,32-19.95,41.73-26C284.37,266.69,279.38,262.83,277,259.43Z" style="fill:#455a64"></path><path d="M466.15,287.64a11.27,11.27,0,0,0,2.66,0c-.15-1.69-.32-3.3-.52-4.8-.81-5.8-2-8.32-3.42-9.79a1,1,0,0,1-.19.18,27.47,27.47,0,0,0-6.2,7.69,6,6,0,0,0-.48,1.58C457.47,286.44,463.43,287.32,466.15,287.64Z" style="fill:#FFC100"></path><path d="M199.74,363.61a230.8,230.8,0,0,0,41.36,23.8c2.16,1,3.24,3.56,1.84,5.47a25.25,25.25,0,0,1-7.82,6.91c-2.08,1.14-5.83.78-8-.06Q208.45,392.67,196,382c-1.8-1.54-3.89-4.67-4-7a31,31,0,0,1,1.55-10.86C194.46,361.88,197.84,362.21,199.74,363.61Z" style="fill:#fff"></path><path d="M231.6,397.94a10.79,10.79,0,0,1-3.61-.61c-12.09-4.59-22.29-10.41-30.3-17.29-1.54-1.32-3-3.84-3.07-5.18a28.42,28.42,0,0,1,1.34-9.75c.41-.84,1.76.2,2.26.57A234,234,0,0,0,240,389.75a1.64,1.64,0,0,1,.93,1,.62.62,0,0,1-.1.59,23,23,0,0,1-7,6.18A5.37,5.37,0,0,1,231.6,397.94Z" style="fill:#FFC100"></path><path d="M231.6,397.94a10.79,10.79,0,0,1-3.61-.61c-12.09-4.59-22.29-10.41-30.3-17.29-1.54-1.32-3-3.84-3.07-5.18a28.42,28.42,0,0,1,1.34-9.75c.41-.84,1.76.2,2.26.57A234,234,0,0,0,240,389.75a1.64,1.64,0,0,1,.93,1,.62.62,0,0,1-.1.59,23,23,0,0,1-7,6.18A5.37,5.37,0,0,1,231.6,397.94Z" style="opacity:0.35000000000000003"></path><path d="M211.64,391l-2.49-.6a63.62,63.62,0,0,1,5.93-14.91l2.23,1.27A62.53,62.53,0,0,0,211.64,391Z" style="fill:#fff"></path><path d="M194.72,370.52l-.26.34c.08.06,7.85,5.9,17.76,12a185.42,185.42,0,0,0,25.65,12.67l.14-.41a185.07,185.07,0,0,1-25.56-12.62C202.55,376.41,194.8,370.57,194.72,370.52Zm-.18,1.85-.26.34c.07.05,7.15,5.5,17.07,11.57a178.93,178.93,0,0,0,25.24,12.43l.14-.4a178.39,178.39,0,0,1-25.16-12.39C201.68,377.85,194.61,372.42,194.54,372.37Zm-.35,3.71-.28.33a161.94,161.94,0,0,0,15.7,10.76A164.53,164.53,0,0,0,234,399.12l.14-.4a164.9,164.9,0,0,1-24.34-11.92A159.06,159.06,0,0,1,194.19,376.08Zm.17-1.86-.26.34a185.15,185.15,0,0,0,16.38,11.17,172.82,172.82,0,0,0,24.83,12.19l.14-.41a172.2,172.2,0,0,1-24.75-12.15A186.71,186.71,0,0,1,194.36,374.22Zm.54-5.56-.26.35c.09.06,8.54,6.31,18.45,12.39a197.91,197.91,0,0,0,26.06,12.9l.14-.4a198.8,198.8,0,0,1-26-12.86C203.42,375,195,368.73,194.9,368.66Zm20.16,9.49c-9.9-6.07-19.71-13.12-19.81-13.19l-.25.35c.1.07,9.92,7.13,19.83,13.21a213.68,213.68,0,0,0,26.88,13.37l.14-.41A211.06,211.06,0,0,1,215.06,378.15Zm-20-11.34-.25.35c.09.06,9.23,6.72,19.14,12.8a207.75,207.75,0,0,0,26.47,13.14l.14-.41a205.16,205.16,0,0,1-26.38-13.1C204.29,373.53,195.17,366.88,195.07,366.81Z" style="fill:#fff"></path><path d="M281.7,399.69c1.73-2.07,2.94-4.6,1.48-6.8s-4.88-3.47-7.31-4.18a29.78,29.78,0,0,0-22.49,2.57,13.89,13.89,0,0,0-4.18,3.3,6.79,6.79,0,0,0-1.58,5c1,8.27,13.32,9.35,19.61,8.25a25.33,25.33,0,0,0,11.22-5A22.27,22.27,0,0,0,281.7,399.69Z" style="fill:#FFC100"></path><path d="M281.7,399.69c1.73-2.07,2.94-4.6,1.48-6.8s-4.88-3.47-7.31-4.18a29.78,29.78,0,0,0-22.49,2.57,13.89,13.89,0,0,0-4.18,3.3,6.79,6.79,0,0,0-1.58,5c1,8.27,13.32,9.35,19.61,8.25a25.33,25.33,0,0,0,11.22-5A22.27,22.27,0,0,0,281.7,399.69Z" style="fill:#fff;opacity:0.85"></path><path d="M271,391.46c2.71,0,8.71,0,8.21,4.1-.45,3.67-6.05,6.65-9.32,7.18-4.11.66-5.83-4.52-4.63-7.82A5.85,5.85,0,0,1,271,391.46Z" style="fill:#fff"></path><path d="M258.56,398.61c2.09-.1,5.26.74,5.39,3.4.1,2.11-3.26,2.14-4.79,1.66C255.48,402.51,255.72,398.54,258.56,398.61Z" style="fill:#fff"></path><path d="M255.07,394.09a2.13,2.13,0,0,0-1.47,1.06c-.53.93-.45,2.3.74,2.61.9.24,4.42-1.32,4.85-2,1-1.67-2.63-1.87-3.46-1.77A6.45,6.45,0,0,0,255.07,394.09Z" style="fill:#fff"></path><path d="M182.49,364.32a4.82,4.82,0,0,0,1.53.43,5.14,5.14,0,0,0,3.86-1.48,13.22,13.22,0,0,0,2.46-3.45c3.16-5.73,10.69-21.22,0-23.76-3.42-.81-7.13,2.44-9,5a19.58,19.58,0,0,0-3.63,13.17C177.94,357.42,179.18,362.74,182.49,364.32Z" style="fill:#FFC100"></path><path d="M182.49,364.32a4.82,4.82,0,0,0,1.53.43,5.14,5.14,0,0,0,3.86-1.48,13.22,13.22,0,0,0,2.46-3.45c3.16-5.73,10.69-21.22,0-23.76-3.42-.81-7.13,2.44-9,5a19.58,19.58,0,0,0-3.63,13.17C177.94,357.42,179.18,362.74,182.49,364.32Z" style="fill:#fff;opacity:0.85"></path><path d="M186.06,339.09c1.61-.77,4.36-1.37,5.88-.15,3.68,3-3.87,8.74-6.23,9.85-3.8,1.8-5.54-.86-3.89-4.42.92-2,2.14-4.27,4.17-5.25Z" style="fill:#fff"></path><path d="M180.83,353.54c.7-.47,1.6-.08,2.49,2,.59,1.39,1.45,5-1.15,4.76C178.82,360,179.28,354.6,180.83,353.54Z" style="fill:#fff"></path><path d="M190.45,352.23c-.25,1.45-1.43,2.93-2.72,3.08-3.27.36-1-7.77,2-5.33A2.29,2.29,0,0,1,190.45,352.23Z" style="fill:#fff"></path><path d="M180.26,370.52c2,8.93,14.15,23.82,28.31,31.46,13.62,7.35,27.82,16.51,50,14.9a61.5,61.5,0,0,0,36.19-15.49s-17.35,12.55-36.32,12.88S222.29,405,209,398.12,183.08,377.46,180.26,370.52Z" style="fill:#FFC100;opacity:0.5"></path><path d="M233.78,426c-12.17-3.65-20.89-8.92-29.38-14.48s-14-10.66-17-14.9c-2.89-4-4.52-9.11-2.61-8.31,3.09,2.93,9.78,9.16,14.1,12.06,12.92,8.7,26.57,19.37,48.28,20.77a17.41,17.41,0,0,1,4.16.52C256.54,423.49,242.05,428.49,233.78,426Z" style="fill:#455a64"></path><path d="M279.57,416.72c-1.21-.21-4.25.53-9.43,1.87s-6.42,1.45-8.36,2.71c-1.64,1.07-6,4.47-8.14,5.48-3.34,1.62,0,2.93,9.14,3.18s12.4-2.44,14.59-5.21S282.32,417.17,279.57,416.72Z" style="fill:#37474f"></path><path d="M178.33,384.77a9.23,9.23,0,0,0,3.06,1.79c1.57-.07.29-2.81-.72-6.88s-4.26-8.36-5.24-11.38A62.69,62.69,0,0,0,178.33,384.77Z" style="fill:#37474f"></path><path d="M362.57,347.5c-1.55,7.41-9.77,9-15.92,8.79a18.78,18.78,0,0,1-6.76-1.16c-2.38-1.37-1.28-4.21,0-5.86,2.16-2.79,11.83-8.39,17.9-8.59C361.33,340.56,363.66,342.29,362.57,347.5Z" style="fill:#263238"></path><path d="M362.57,347.5c-1.55,7.41-9.77,9-15.92,8.79a18.78,18.78,0,0,1-6.76-1.16c-2.38-1.37-1.28-4.21,0-5.86-1.2,2.26,5.14,3.66,10.79,1.64s9.85-6.4,7.11-10.23C361.33,340.56,363.66,342.29,362.57,347.5Z" style="fill:#455a64"></path><path d="M362.57,347.5c-1.55,7.41-9.77,9-15.92,8.79,6.13-.17,11-3.7,12.85-7.55s.44-7.57-1.72-8.06C361.33,340.56,363.66,342.29,362.57,347.5Z" style="fill:#37474f"></path><path d="M471.24,316.31a8.11,8.11,0,0,1-1.64,3.91c-2.42,3.33-1.19,2.11-10.35,7.4V340l6.34-3.65C470.63,333.46,471.24,327.43,471.24,316.31Z" style="fill:#263238"></path><path d="M469.85,311.93a9.2,9.2,0,0,1-.2,2.11c-.36,2-1.63,4.4-7.06,7.52s-6.84,4-6.84,4l3.5,2.07c9.16-5.29,7.93-4.07,10.35-7.4a8.11,8.11,0,0,0,1.64-3.91C471.24,314.16,471,312.88,469.85,311.93Z" style="fill:#455a64"></path><polygon points="455.75 325.55 455.75 338 459.25 340.02 459.25 327.62 455.75 325.55" style="fill:#37474f"></polygon><g style="opacity:0.30000000000000004"><path d="M221.53,360.78c-3.25,1.09-3.56,7.27-1.52,9.47a.84.84,0,0,0,.36.19,8.22,8.22,0,0,0,5-.6,10.6,10.6,0,0,0,4.32-2.75.85.85,0,0,0,.14-.68c-.78-2.57-5.56-5.79-8.28-5.63a4.18,4.18,0,0,1,2.19.1,13.21,13.21,0,0,1,5.71,3.34,4.4,4.4,0,0,1,1.24,2c.41,2.65-5,4.74-7.14,5.14-1.3.25-2.91.41-4.06-.43-2.44-2.37-1.68-9.45,2.06-10.18Z" style="fill:#FFC100"></path></g></g></g><g id="freepik--Icon--inject-66"><g id="freepik--speech-bubble--inject-66"><g id="freepik--speech-bubble--inject-66"><path d="M297.49,194.88l1.46-4.56c.78-3.69-14.25,5-15,8.68l4.85,13a2.06,2.06,0,0,0,.81,1c1.06.65,5,2.86,5.32,3.07a2.11,2.11,0,0,0,3.1-1.15l6.27-21.52C304.65,191.57,301.19,192.76,297.49,194.88Z" style="fill:#FFC100"></path><path d="M297.49,194.88l1.46-4.56c.78-3.69-14.25,5-15,8.68l4.85,13a2.06,2.06,0,0,0,.81,1c1.06.65,5,2.86,5.32,3.07a2.11,2.11,0,0,0,3.1-1.15l6.27-21.52C304.65,191.57,301.19,192.76,297.49,194.88Z" style="opacity:0.15"></path><path d="M290.06,204l4,11.15a2.1,2.1,0,0,0,3.92-.2l5.34-18.6Z" style="fill:#FFC100"></path><path d="M308,122.38c-5.64-3.21-13.41-2.72-22,2.24-17.26,10-31.24,34.18-31.24,54.1,0,10,3.49,16.95,9.13,20.21l10.68,6.14c5.65,3.26,13.45,2.78,22.06-2.19,17.26-10,31.24-34.19,31.24-54.11,0-9.93-3.48-16.91-9.1-20.19C316.4,127.21,310.36,123.73,308,122.38Z" style="fill:#FFC100"></path><path d="M300.3,200.51l-.1.06c-1.17.84-2.37,1.61-3.58,2.31-8.61,5-16.41,5.45-22.06,2.19l-10.67-6.14c-5.66-3.26-9.14-10.26-9.14-20.2,0-1.38.06-2.78.2-4.19a.71.71,0,0,1,0-.14C270,183.05,285.89,192.18,300.3,200.51Z" style="opacity:0.15"></path><ellipse cx="296.62" cy="166.81" rx="44.18" ry="25.51" transform="matrix(0.5, -0.87, 0.87, 0.5, 3.85, 340.29)" style="fill:#FFC100"></ellipse><path d="M327.86,148.77c0-19.92-14-28-31.24-18s-31.24,34.19-31.24,54.11c0,17.57,10.88,25.92,25.29,20.82l3.4,9.45a2.1,2.1,0,0,0,3.92-.2l4.64-16.17C317,187.2,327.86,166.32,327.86,148.77Z" style="fill:#fff;opacity:0.35000000000000003"></path></g><path id="freepik--Fuel--inject-66" d="M309,166.36c0,9.11-5.54,19.7-12.38,23.64s-12.37-.24-12.37-9.35c0-15.17,12.37-38.52,12.37-38.52S309,151.16,309,166.36Z" style="fill:#fff"></path><polygon id="freepik--Electricity--inject-66" points="299.28 152.95 289.42 175.1 296.45 171.04 294 183.57 303.82 161.41 296.79 165.47 299.28 152.95" style="fill:#FFC100"></polygon></g></g></svg>